<svg width="37" height="29" viewBox="0 0 37 29" fill="none" xmlns="http://www.w3.org/2000/svg">
<g clip-path="url(#clip0_0_633)" filter="url(#filter0_d_0_633)">
<path d="M29.7915 0.853127H7.31009C5.97727 0.853127 4.90137 1.92513 4.90137 3.25313V17.6531C4.90137 18.9811 5.97727 20.0531 7.31009 20.0531H29.7915C31.1244 20.0531 32.2003 18.9811 32.2003 17.6531V3.25313C32.2003 1.92513 31.1244 0.853127 29.7915 0.853127Z" fill="url(#paint0_radial_0_633)"/>
<path d="M30.1931 1.25313C31.0763 1.25313 31.7989 1.97313 31.7989 2.85313V18.0531C31.7989 18.9331 31.0763 19.6531 30.1931 19.6531H6.90873C6.02553 19.6531 5.30291 18.9331 5.30291 18.0531V2.85313C5.30291 1.97313 6.02553 1.25313 6.90873 1.25313H30.1931ZM30.1931 0.453125H6.90873C5.5759 0.453125 4.5 1.52513 4.5 2.85313V18.0531C4.5 19.3811 5.5759 20.4531 6.90873 20.4531H30.1931C31.5259 20.4531 32.6018 19.3811 32.6018 18.0531V2.85313C32.6018 1.52513 31.5259 0.453125 30.1931 0.453125Z" fill="#E7E7E7"/>
<path d="M10.0723 10.7331H11.4533L10.7628 9.05313L10.0723 10.7331Z" fill="white"/>
<path d="M20.8875 9.21313V9.98113H23.1195V10.8451H20.8875V11.6931H23.3845L24.5407 10.4371L23.4407 9.21313H20.8875Z" fill="white"/>
<path d="M29.7275 7.49313H26.0662L25.2312 8.39713L24.4524 7.49313H19.7553H19.1772H16.889L16.2225 9.01313L15.5401 7.49313H12.4168V8.19713L12.0715 7.49313H9.42993L6.86865 13.3971H9.92774L10.3212 12.4531H11.1883L11.5737 13.3971H14.978V12.6851L15.2831 13.4131H17.0495L17.3546 12.6851V13.4131H19.1371H24.3319L25.191 12.4931L26.01 13.4131H29.607L26.9574 10.4771L29.7275 7.49313ZM19.1532 12.5571H18.1174V9.23713L16.6481 12.5571H15.7408L14.2715 9.23713V12.5571H12.208L11.8226 11.6131H9.70292L9.3095 12.5571H8.20148L10.0161 8.32513H11.5255L13.2518 12.3331V8.32513H14.9058L16.2386 11.1971L17.459 8.32513H19.1532V12.5571ZM27.7684 12.5731H26.4516L25.1991 11.1731L23.9064 12.5731H19.8838V8.33313H23.9706L25.2232 9.72513L26.5158 8.33313H27.8487L25.8735 10.4531L27.7684 12.5731Z" fill="white"/>
</g>
<defs>
<filter id="filter0_d_0_633" x="0.5" y="0.453125" width="37" height="28" filterUnits="userSpaceOnUse" color-interpolation-filters="sRGB">
<feFlood flood-opacity="0" result="BackgroundImageFix"/>
<feColorMatrix in="SourceAlpha" type="matrix" values="0 0 0 0 0 0 0 0 0 0 0 0 0 0 0 0 0 0 127 0" result="hardAlpha"/>
<feOffset dy="4"/>
<feGaussianBlur stdDeviation="2"/>
<feComposite in2="hardAlpha" operator="out"/>
<feColorMatrix type="matrix" values="0 0 0 0 0 0 0 0 0 0 0 0 0 0 0 0 0 0 0.25 0"/>
<feBlend mode="normal" in2="BackgroundImageFix" result="effect1_dropShadow_0_633"/>
<feBlend mode="normal" in="SourceGraphic" in2="effect1_dropShadow_0_633" result="shape"/>
</filter>
<radialGradient id="paint0_radial_0_633" cx="0" cy="0" r="1" gradientUnits="userSpaceOnUse" gradientTransform="translate(323.578 50.9723) scale(2618.71 2618.71)">
<stop stop-color="#9DD5F6"/>
<stop offset="0.0711" stop-color="#98D3F5"/>
<stop offset="0.1575" stop-color="#89CEF3"/>
<stop offset="0.2516" stop-color="#70C6EF"/>
<stop offset="0.3514" stop-color="#4EBBEA"/>
<stop offset="0.4546" stop-color="#23ADE3"/>
<stop offset="0.5" stop-color="#0DA6E0"/>
<stop offset="1" stop-color="#2E77BC"/>
</radialGradient>
<clipPath id="clip0_0_633">
<rect width="29" height="20" fill="white" transform="translate(4.5 0.453125)"/>
</clipPath>
</defs>
</svg>
