<svg width="28" height="21" viewBox="0 0 28 21" fill="none" xmlns="http://www.w3.org/2000/svg">
<g clip-path="url(#clip0_0_649)">
<path d="M0.639893 1.25312H27.2799V19.6531H0.639893V1.25312Z" fill="white"/>
<path d="M5.78344 14.1329C5.78344 13.8078 5.6144 13.8292 5.45232 13.8257V13.7318C5.5928 13.7387 5.7368 13.7387 5.87752 13.7387C6.0288 13.7387 6.23432 13.7318 6.50096 13.7318C7.43392 13.7318 7.942 14.3568 7.942 14.9968C7.942 15.3547 7.7332 16.2544 6.4576 16.2544C6.27392 16.2544 6.1044 16.2474 5.9352 16.2474C5.77304 16.2474 5.6144 16.251 5.45232 16.2545V16.1606C5.66832 16.1388 5.77312 16.1316 5.78336 15.8858V14.133L5.78344 14.1329ZM6.13664 15.8281C6.13664 16.1064 6.33504 16.1389 6.51144 16.1389C7.29 16.1389 7.5456 15.5497 7.5456 15.0111C7.5456 14.3355 7.11312 13.8476 6.41784 13.8476C6.26984 13.8476 6.20184 13.8582 6.13664 13.8621V15.8281ZM8.06848 16.1606H8.13672C8.23752 16.1606 8.30968 16.1606 8.30968 16.0411V15.0618C8.30968 14.903 8.25568 14.8809 8.12232 14.809V14.7511C8.2916 14.7001 8.4936 14.6319 8.50776 14.621C8.5332 14.6066 8.55464 14.6027 8.57272 14.6027C8.59056 14.6027 8.59808 14.6246 8.59808 14.6536V16.0411C8.59808 16.1606 8.67728 16.1606 8.77816 16.1606H8.83936V16.2546C8.71672 16.2546 8.59056 16.2474 8.46112 16.2474C8.33144 16.2474 8.2016 16.251 8.06848 16.2546V16.1606ZM8.45392 14.0462C8.36008 14.0462 8.27744 13.9596 8.27744 13.8656C8.27744 13.7751 8.36392 13.6918 8.45392 13.6918C8.54728 13.6918 8.63056 13.768 8.63056 13.8656C8.63056 13.9632 8.55096 14.0462 8.45392 14.0462ZM9.18168 15.0834C9.18168 14.9498 9.14184 14.9138 8.97288 14.845V14.7765C9.12768 14.7259 9.27528 14.6789 9.44832 14.6028C9.45904 14.6028 9.4696 14.6102 9.4696 14.6389V14.8739C9.67536 14.7259 9.852 14.6027 10.0937 14.6027C10.3996 14.6027 10.5077 14.8269 10.5077 15.1087V16.0411C10.5077 16.1606 10.5869 16.1606 10.6879 16.1606H10.7528V16.2546C10.6264 16.2546 10.5003 16.2474 10.3709 16.2474C10.241 16.2474 10.1112 16.251 9.98168 16.2546V16.1606H10.0463C10.1475 16.1606 10.2191 16.1606 10.2191 16.0411V15.1053C10.2191 14.899 10.0937 14.798 9.88792 14.798C9.7728 14.798 9.58896 14.8919 9.4696 14.9716V16.041C9.4696 16.1606 9.54928 16.1606 9.65032 16.1606H9.71504V16.2546C9.58896 16.2546 9.46272 16.2474 9.33296 16.2474C9.20336 16.2474 9.07344 16.251 8.94384 16.2546V16.1606H9.00888C9.10968 16.1606 9.18168 16.1606 9.18168 16.041V15.0834ZM11.0268 15.257C11.0193 15.2897 11.0193 15.3438 11.0268 15.4668C11.048 15.81 11.2684 16.0918 11.5562 16.0918C11.7546 16.0918 11.9098 15.9834 12.043 15.8498L12.0932 15.9006C11.9274 16.1209 11.722 16.3087 11.4268 16.3087C10.8537 16.3087 10.7384 15.752 10.7384 15.521C10.7384 14.8125 11.2139 14.6027 11.466 14.6027C11.758 14.6027 12.0718 14.787 12.0751 15.1701C12.0751 15.192 12.0751 15.2134 12.0718 15.2354L12.0391 15.257H11.0268ZM11.6647 15.1414C11.7546 15.1414 11.7652 15.0943 11.7652 15.051C11.7652 14.8667 11.6535 14.7185 11.4516 14.7185C11.2321 14.7185 11.0807 14.8809 11.0375 15.1414H11.6647ZM12.1581 16.1606H12.2554C12.356 16.1606 12.4281 16.1606 12.4281 16.0411V15.0257C12.4281 14.9137 12.295 14.8919 12.2408 14.863V14.809C12.5038 14.6968 12.6481 14.6027 12.6808 14.6027C12.7022 14.6027 12.7128 14.6137 12.7128 14.6499V14.9751H12.7204C12.8103 14.8343 12.9619 14.6027 13.1814 14.6027C13.2716 14.6027 13.3868 14.6641 13.3868 14.7943C13.3868 14.8919 13.3185 14.979 13.2177 14.979C13.1055 14.979 13.1055 14.8919 12.9796 14.8919C12.9182 14.8919 12.7166 14.9751 12.7166 15.192V16.0411C12.7166 16.1606 12.7886 16.1606 12.8896 16.1606H13.0912V16.2546C12.893 16.251 12.7422 16.2474 12.587 16.2474C12.4393 16.2474 12.2878 16.251 12.1582 16.2546L12.1581 16.1606ZM13.5454 15.752C13.5924 15.9906 13.7363 16.1931 13.9995 16.1931C14.2117 16.1931 14.291 16.063 14.291 15.9366C14.291 15.51 13.5058 15.6474 13.5058 15.0655C13.5058 14.863 13.6681 14.6027 14.0642 14.6027C14.1794 14.6027 14.3342 14.6355 14.4747 14.7078L14.5002 15.0762H14.4172C14.3812 14.8487 14.2553 14.7186 14.0244 14.7186C13.8803 14.7186 13.7435 14.8018 13.7435 14.957C13.7435 15.3802 14.5794 15.2498 14.5794 15.8171C14.5794 16.0555 14.3884 16.3088 13.9595 16.3088C13.8154 16.3088 13.6462 16.2582 13.5202 16.1861L13.4804 15.7703L13.5454 15.752ZM17.833 14.3859H17.7432C17.6746 13.9633 17.3756 13.7932 16.9722 13.7932C16.5575 13.7932 15.9558 14.0714 15.9558 14.9387C15.9558 15.6693 16.475 16.1931 17.0297 16.1931C17.3863 16.1931 17.682 15.9474 17.7541 15.5678L17.8367 15.5894L17.7541 16.117C17.6027 16.2112 17.1955 16.3087 16.9574 16.3087C16.1146 16.3087 15.5814 15.763 15.5814 14.9498C15.5814 14.2088 16.2406 13.6774 16.9469 13.6774C17.2386 13.6774 17.5197 13.7717 17.7971 13.8694L17.833 14.3859ZM17.963 16.1606H18.0313C18.1323 16.1606 18.2046 16.1606 18.2046 16.0411V14.0283C18.2046 13.7932 18.1506 13.786 18.0134 13.7463V13.6885C18.1576 13.6416 18.309 13.5765 18.3846 13.533C18.4238 13.5114 18.453 13.4931 18.4637 13.4931C18.4857 13.4931 18.4929 13.515 18.4929 13.544V16.0411C18.4929 16.1606 18.572 16.1606 18.673 16.1606H18.7338V16.2546C18.6118 16.2546 18.4857 16.2474 18.3558 16.2474C18.2262 16.2474 18.0966 16.251 17.963 16.2546V16.1606ZM20.2766 16.0555C20.2766 16.1209 20.3161 16.1244 20.3772 16.1244C20.4206 16.1244 20.4745 16.1209 20.5214 16.1209V16.1969C20.3664 16.2113 20.0709 16.2873 20.0024 16.3087L19.9843 16.2978V16.0054C19.7683 16.1823 19.6024 16.3087 19.3464 16.3087C19.1518 16.3087 18.9501 16.1823 18.9501 15.879V14.9534C18.9501 14.8595 18.9357 14.769 18.7343 14.7511V14.6823C18.8642 14.6788 19.1518 14.6571 19.1989 14.6571C19.2389 14.6571 19.2389 14.6824 19.2389 14.7619V15.6941C19.2389 15.8027 19.2389 16.1134 19.5521 16.1134C19.6745 16.1134 19.8366 16.0195 19.9878 15.8934V14.9206C19.9878 14.8486 19.815 14.809 19.6856 14.7727V14.7077C20.0094 14.6859 20.2116 14.6571 20.2474 14.6571C20.2766 14.6571 20.2766 14.6823 20.2766 14.7223V16.0555ZM20.9936 14.863C21.1376 14.7402 21.332 14.6027 21.5304 14.6027C21.9486 14.6027 22.2005 14.9682 22.2005 15.3618C22.2005 15.8352 21.8547 16.3087 21.3391 16.3087C21.0726 16.3087 20.9322 16.2219 20.8383 16.1823L20.7305 16.2652L20.655 16.2257C20.687 16.0125 20.7054 15.8027 20.7054 15.5824V14.0283C20.7054 13.7932 20.651 13.786 20.5142 13.7463V13.6885C20.6587 13.6416 20.8096 13.5765 20.8854 13.533C20.925 13.5114 20.9537 13.4931 20.9649 13.4931C20.9863 13.4931 20.9935 13.515 20.9935 13.544L20.9936 14.863ZM20.9936 15.846C20.9936 15.9834 21.1231 16.215 21.3646 16.215C21.7502 16.215 21.9122 15.8352 21.9122 15.5134C21.9122 15.1232 21.617 14.798 21.3359 14.798C21.2022 14.798 21.0908 14.8849 20.9935 14.9682L20.9936 15.846ZM5.44824 18.3559H5.47584C5.54624 18.3559 5.62072 18.3463 5.62072 18.2439V17.2137C5.62072 17.1111 5.54624 17.1014 5.47584 17.1014H5.44824V17.0424C5.5248 17.0424 5.6424 17.0502 5.7388 17.0502C5.83664 17.0502 5.95416 17.0424 6.04632 17.0424V17.1014H6.01872C5.9484 17.1014 5.87376 17.1111 5.87376 17.2137V18.2439C5.87376 18.3463 5.9484 18.3559 6.01872 18.3559H6.04632V18.4152C5.95224 18.4152 5.83432 18.4074 5.73656 18.4074C5.64048 18.4074 5.5248 18.4152 5.44824 18.4152V18.3559Z" fill="#211E1F"/>
<path d="M6.04642 18.4235C5.9517 18.4235 5.83426 18.4156 5.73658 18.4156C5.64074 18.4156 5.52546 18.4235 5.44834 18.4235H5.43994V18.3474H5.47586C5.5469 18.3458 5.61162 18.3401 5.61234 18.2439V17.2137C5.61162 17.1175 5.5469 17.1111 5.47586 17.1098H5.43994V17.0337H5.44834C5.52546 17.0337 5.6429 17.0414 5.73874 17.0414C5.83634 17.0414 5.9537 17.0337 6.04642 17.0337H6.05522V17.1098H6.01898C5.94786 17.1111 5.88274 17.1175 5.88234 17.2137V18.2439C5.88274 18.3401 5.94786 18.3458 6.01898 18.3474H6.05514V18.4234H6.04642V18.4235ZM6.03802 18.4067V18.3647H6.01898C5.94898 18.3647 5.86562 18.3526 5.86522 18.2439V17.2137C5.86562 17.105 5.94898 17.0927 6.01898 17.0927H6.03802V17.051C5.94746 17.051 5.83394 17.0586 5.73882 17.0586C5.64562 17.0586 5.5329 17.0515 5.45706 17.051V17.0927H5.47578C5.5457 17.0927 5.62938 17.105 5.62938 17.2137V18.2439C5.62938 18.3526 5.5457 18.3647 5.47578 18.3647H5.45706V18.4067C5.5329 18.4059 5.6437 18.3988 5.73658 18.3988C5.83202 18.3988 5.94554 18.4062 6.03802 18.4067ZM7.39338 18.0275L7.39738 18.0237V17.2863C7.39738 17.1249 7.28538 17.1015 7.22674 17.1015H7.18346V17.0423C7.27578 17.0423 7.36586 17.0502 7.45794 17.0502C7.53826 17.0502 7.61906 17.0424 7.6993 17.0424V17.1014H7.66994C7.58738 17.1014 7.49522 17.1171 7.49522 17.351V18.2461C7.49522 18.3149 7.49722 18.3835 7.5069 18.4445H7.43226L6.42274 17.3157V18.126C6.42274 18.2971 6.45578 18.3558 6.60698 18.3558H6.64018V18.4152C6.55602 18.4152 6.47186 18.4074 6.38738 18.4074C6.29938 18.4074 6.20914 18.4152 6.12082 18.4152V18.3558H6.14826C6.28354 18.3558 6.32458 18.2637 6.32458 18.1065V17.2782C6.32458 17.1682 6.23418 17.1014 6.14634 17.1014H6.12074V17.0424C6.1953 17.0424 6.2717 17.0502 6.3461 17.0502C6.40498 17.0502 6.46194 17.0424 6.52066 17.0424L7.39338 18.0275Z" fill="#211E1F"/>
<path d="M7.50686 18.4531L7.42606 18.4501L6.43102 17.3379V18.126C6.43342 18.297 6.45934 18.3455 6.60702 18.3474H6.64902V18.4235H6.64022C6.55542 18.4235 6.47102 18.4156 6.38742 18.4156C6.29958 18.4156 6.20958 18.4236 6.12062 18.4236H6.11206V18.3474H6.14822C6.27782 18.3468 6.31478 18.2634 6.31622 18.1066V17.2783C6.31598 17.1736 6.23038 17.1101 6.1463 17.1098H6.11206V17.034H6.12062C6.19558 17.034 6.27238 17.0415 6.3459 17.0415C6.4043 17.0415 6.4611 17.034 6.52718 17.0369L7.38878 18.0097V17.2865C7.38774 17.13 7.28374 17.1112 7.22662 17.1098H7.1747V17.034H7.18342C7.27606 17.034 7.3663 17.0415 7.4579 17.0415C7.53774 17.0415 7.61806 17.034 7.6991 17.034H7.70766V17.1098H7.6699C7.58902 17.1122 7.5059 17.1192 7.50366 17.3511V18.246C7.50366 18.3147 7.50566 18.3834 7.51518 18.443L7.5171 18.4531H7.50686ZM7.43246 18.4358H7.49726C7.48846 18.3767 7.48686 18.3113 7.48686 18.246V17.3511C7.48686 17.1151 7.5855 17.0927 7.6699 17.0927H7.69062V17.051C7.61334 17.0516 7.5359 17.0586 7.45798 17.0586C7.36822 17.0586 7.28094 17.0516 7.19214 17.051L7.19206 17.0927H7.2267C7.28694 17.0927 7.4059 17.1198 7.4059 17.2865L7.40318 18.0296L7.39918 18.0337L7.39262 18.0398L6.52062 17.051C6.46246 17.051 6.40566 17.0586 6.34598 17.0586C6.27398 17.0586 6.20046 17.0516 6.12942 17.051L6.12894 17.0927H6.14638C6.23838 17.0927 6.33294 17.1632 6.33294 17.2783V18.1065C6.33294 18.2637 6.28926 18.3643 6.1483 18.3649L6.12942 18.3643V18.4067C6.21438 18.4059 6.30166 18.3988 6.38742 18.3988C6.46926 18.3988 6.5507 18.406 6.63174 18.4068V18.3649H6.60694C6.4527 18.3643 6.41438 18.297 6.41414 18.126V17.2936L7.43246 18.4358ZM7.38886 18.0236V18.023L7.38726 18.0216L7.38886 18.0236ZM7.99286 17.1406C7.84558 17.1406 7.84006 17.1761 7.81062 17.3195H7.75174C7.7595 17.2646 7.76934 17.2096 7.77526 17.1523C7.78318 17.0973 7.78694 17.0424 7.78694 16.9854H7.83414C7.8499 17.0445 7.89894 17.0424 7.95206 17.0424H8.96342C9.01646 17.0424 9.06542 17.0406 9.0695 16.9814L9.11622 16.9893C9.10862 17.0424 9.1007 17.0955 9.09478 17.1486C9.09126 17.2017 9.09126 17.2549 9.09126 17.3078L9.03222 17.3298C9.02814 17.257 9.01838 17.1406 8.88718 17.1406H8.56558V18.187C8.56558 18.3386 8.6343 18.3559 8.72806 18.3559H8.7655V18.4152C8.68902 18.4152 8.55158 18.4074 8.44598 18.4074C8.32838 18.4074 8.19094 18.4152 8.11438 18.4152V18.3559H8.15174C8.25982 18.3559 8.31446 18.3462 8.31446 18.191V17.1406H7.99286Z" fill="#211E1F"/>
<path d="M8.76587 18.4235C8.68867 18.4235 8.55147 18.4156 8.44611 18.4156C8.32867 18.4156 8.19147 18.4235 8.11451 18.4235H8.10635V18.3474H8.15195C8.25995 18.3449 8.30347 18.3434 8.30595 18.191V17.1491H7.99291V17.1318H8.32283V18.191C8.32283 18.3487 8.25955 18.3646 8.15187 18.3648H8.12307V18.4062C8.20035 18.4058 8.33227 18.3987 8.44603 18.3987C8.54827 18.3987 8.67939 18.4058 8.75683 18.4062V18.3648H8.72819C8.63339 18.3646 8.55715 18.3414 8.55715 18.1869V17.1318H8.88723C9.01883 17.1323 9.03603 17.2446 9.04035 17.3175L9.08259 17.3018C9.08259 17.2506 9.08291 17.1991 9.08643 17.1474C9.09211 17.0967 9.09931 17.0466 9.10667 16.9964L9.07675 16.9914C9.06763 17.0486 9.01259 17.0514 8.96315 17.051H7.94203C7.89595 17.051 7.84555 17.0487 7.82795 16.9938H7.79563C7.79539 17.0472 7.79163 17.1005 7.78403 17.1533C7.77835 17.2074 7.76939 17.2593 7.76203 17.3112H7.80403C7.82987 17.1742 7.84667 17.1298 7.99291 17.1318V17.1491C7.84803 17.1517 7.85107 17.1762 7.81915 17.3216L7.81763 17.3282H7.74219L7.74331 17.3181C7.75115 17.263 7.76107 17.2082 7.76691 17.1509C7.77507 17.0963 7.77891 17.0418 7.77891 16.9853V16.9767H7.84107L7.84243 16.9829C7.85587 17.0325 7.89219 17.0328 7.94203 17.0336H8.96339C9.01803 17.0328 9.05779 17.032 9.06115 16.9806L9.06195 16.9713L9.07075 16.9732L9.12611 16.982L9.12491 16.9905C9.11671 17.0432 9.10959 17.0961 9.10355 17.1491C9.09955 17.2014 9.09955 17.2546 9.09955 17.3077V17.3138L9.09419 17.316L9.02467 17.3414L9.02419 17.3298C9.01899 17.256 9.01123 17.149 8.88739 17.149H8.57443V18.1868C8.57619 18.3352 8.63491 18.3454 8.72827 18.3473H8.77427V18.4234H8.76595L8.76587 18.4235ZM9.17907 18.3558H9.20667C9.27707 18.3558 9.35171 18.3463 9.35171 18.2439V17.2137C9.35171 17.1111 9.27715 17.1014 9.20667 17.1014H9.17907V17.0424C9.29843 17.0424 9.50267 17.0502 9.66707 17.0502C9.83211 17.0502 10.0356 17.0424 10.1688 17.0424C10.1658 17.1427 10.1672 17.2431 10.1732 17.3432L10.114 17.359C10.1047 17.2313 10.0812 17.1291 9.87515 17.1291H9.60283V17.6442H9.83595C9.95355 17.6442 9.97915 17.5774 9.99075 17.471H10.0495C10.0416 17.6223 10.0416 17.774 10.0495 17.9254L9.99075 17.9371C9.97923 17.8192 9.97323 17.7426 9.83779 17.7426H9.60291V18.2006C9.60291 18.3286 9.71611 18.3286 9.84179 18.3286C10.0771 18.3286 10.1808 18.3126 10.2397 18.0888L10.2947 18.1022C10.2685 18.2057 10.2464 18.3101 10.2282 18.4152C10.1026 18.4152 9.87699 18.4074 9.70075 18.4074C9.52395 18.4074 9.29091 18.4152 9.17915 18.4152L9.17907 18.3558Z" fill="#211E1F"/>
<path d="M10.2279 18.4235C10.1019 18.4235 9.87657 18.4155 9.70049 18.4155C9.52385 18.4155 9.29089 18.4235 9.17889 18.4235H9.17065V18.3475H9.20641C9.27753 18.3464 9.34193 18.3401 9.34289 18.244V17.2137C9.34193 17.1177 9.27753 17.1113 9.20641 17.1098H9.17065V17.034H9.17889C9.29857 17.034 9.50249 17.0415 9.66689 17.0415C9.83177 17.0415 10.0352 17.034 10.1687 17.034H10.1775L10.1771 17.0428C10.1757 17.0766 10.1751 17.1105 10.1752 17.1443C10.1752 17.2123 10.1771 17.2866 10.1811 17.3427L10.1814 17.3498L10.1748 17.3517L10.1059 17.3697L10.1055 17.3596C10.0939 17.232 10.077 17.1394 9.87513 17.1375H9.61089L9.61065 17.6353H9.83577C9.94857 17.6342 9.96889 17.5762 9.98217 17.4703L9.98297 17.4626H10.0581L10.0579 17.4714C10.054 17.5479 10.0519 17.6246 10.0517 17.7013C10.0517 17.7757 10.0541 17.8503 10.0579 17.9252L10.0581 17.9322L10.051 17.9338L9.98297 17.9474L9.98217 17.9382C9.96873 17.8182 9.96777 17.7524 9.83753 17.751L9.61089 17.7508V18.2006C9.61105 18.3201 9.71377 18.3194 9.84161 18.3201C10.0776 18.3187 10.1723 18.3073 10.2315 18.0863L10.2334 18.0784L10.2416 18.08L10.3044 18.0962L10.3025 18.1043C10.2772 18.2085 10.2537 18.3124 10.2361 18.4166L10.2345 18.4235H10.2279ZM10.2207 18.4064C10.2384 18.3065 10.2596 18.2072 10.2842 18.1087L10.2454 18.0989C10.1867 18.319 10.073 18.3386 9.84161 18.3371C9.71817 18.3371 9.59441 18.3371 9.59385 18.2006V17.734H9.83753C9.97441 17.7325 9.98841 17.8154 9.99809 17.9274L10.0405 17.9186C10.033 17.7724 10.033 17.6259 10.0405 17.4797L9.99809 17.4796C9.98721 17.582 9.95529 17.654 9.83569 17.6526H9.59385V17.1203H9.87505C10.0791 17.1189 10.1128 17.2245 10.1215 17.3482L10.1639 17.3367C10.1601 17.2727 10.1582 17.2085 10.1581 17.1443C10.1581 17.1106 10.1589 17.0789 10.16 17.051C10.0268 17.0516 9.82825 17.0586 9.66689 17.0586C9.50577 17.0586 9.30745 17.0516 9.18737 17.051V17.0927H9.20641C9.27625 17.0927 9.35977 17.105 9.36001 17.2137V18.244C9.35977 18.3523 9.27625 18.3643 9.20641 18.3649H9.18737V18.4063C9.30177 18.4062 9.52817 18.3989 9.70049 18.3989C9.87337 18.3989 10.0942 18.4062 10.2207 18.4063V18.4064ZM10.5591 17.2508C10.5591 17.1074 10.4808 17.1014 10.4198 17.1014H10.3846V17.0422C10.4474 17.0422 10.5687 17.0502 10.6884 17.0502C10.806 17.0502 10.9003 17.0422 11.004 17.0422C11.2508 17.0422 11.4707 17.1093 11.4707 17.3888C11.4707 17.5654 11.3531 17.6736 11.1983 17.7348L11.5335 18.238C11.5883 18.3212 11.6274 18.3444 11.7236 18.3559V18.4152C11.6588 18.4152 11.5961 18.4074 11.5315 18.4074C11.4707 18.4074 11.4078 18.4152 11.3472 18.4152C11.1963 18.2166 11.0667 18.0041 10.9392 17.7778H10.8103V18.1988C10.8103 18.3504 10.8805 18.3559 10.9707 18.3559H11.006V18.4152C10.894 18.4152 10.7807 18.4074 10.6688 18.4074C10.5746 18.4074 10.4824 18.4152 10.3846 18.4152V18.3559H10.4198C10.4926 18.3559 10.5591 18.3229 10.5591 18.2499V17.2507L10.5591 17.2508ZM10.8103 17.707H10.9059C11.1021 17.707 11.2078 17.6323 11.2078 17.4002C11.2078 17.2254 11.0961 17.1132 10.9214 17.1132C10.8626 17.1132 10.8375 17.1194 10.8102 17.1211V17.707H10.8103Z" fill="#211E1F"/>
<path d="M11.7237 18.4235C11.658 18.4235 11.5956 18.4156 11.5311 18.4156C11.4713 18.4156 11.4087 18.4236 11.3404 18.4202C11.19 18.2224 11.0612 18.0112 10.9344 17.7865H10.8185V18.1986C10.8206 18.3466 10.8799 18.3453 10.9705 18.3474H11.0145V18.4236H11.0057C10.8937 18.4236 10.78 18.4156 10.6686 18.4156C10.5749 18.4156 10.483 18.4236 10.3846 18.4236H10.376V18.3474H10.4197C10.4905 18.347 10.5501 18.3162 10.5503 18.25V17.2508C10.5488 17.1112 10.4807 17.112 10.4197 17.11H10.376V17.0338H10.3845C10.4481 17.0338 10.569 17.0415 10.6885 17.0415C10.8055 17.0415 10.8997 17.0338 11.0041 17.0338C11.2512 17.0343 11.4788 17.1027 11.4794 17.3882C11.4794 17.5659 11.3624 17.6768 11.211 17.7386L11.5405 18.2334C11.5953 18.315 11.6294 18.3352 11.7249 18.3474L11.7321 18.3486V18.4236L11.7237 18.4235ZM10.8101 17.7694H10.9441L10.9464 17.7737C11.0741 17.9996 11.2029 18.2118 11.3473 18.4068C11.4071 18.4068 11.4701 18.3987 11.5311 18.3987C11.5937 18.3987 11.6541 18.4055 11.7152 18.4065V18.3634C11.6232 18.3519 11.5801 18.3244 11.5265 18.2427L11.1853 17.7307L11.1949 17.7267C11.3484 17.6662 11.4619 17.5611 11.4621 17.3882C11.4619 17.1154 11.2506 17.0522 11.0041 17.051C10.9007 17.051 10.8065 17.0588 10.6885 17.0588C10.5733 17.0588 10.457 17.0516 10.3929 17.051V17.0927H10.4197C10.4807 17.0929 10.5674 17.103 10.5674 17.2508V18.25C10.5674 18.3289 10.4936 18.3649 10.4197 18.365H10.3929V18.4065C10.4873 18.4062 10.5765 18.3987 10.6686 18.3987C10.7782 18.3987 10.8889 18.4062 10.9973 18.4065V18.365H10.9705C10.8811 18.3649 10.8014 18.3538 10.8014 18.1986V17.7694H10.81H10.8101ZM10.8101 17.7154H10.8014V17.1132L10.8089 17.1126C10.8357 17.1105 10.8622 17.1049 10.9215 17.1049C11.1001 17.1049 11.2162 17.2214 11.2165 17.4006C11.216 17.6354 11.1037 17.7152 10.906 17.7153H10.81L10.8101 17.7154ZM10.906 17.6984C11.1001 17.6968 11.1977 17.6292 11.1998 17.4006C11.1987 17.2288 11.0922 17.1222 10.9214 17.1215C10.8685 17.1215 10.8436 17.1264 10.8185 17.1286V17.6984H10.906ZM13.0548 18.0276L13.0584 18.0238V17.2864C13.0584 17.125 12.9468 17.1015 12.888 17.1015H12.845V17.0424C12.937 17.0424 13.0271 17.0502 13.1194 17.0502C13.1999 17.0502 13.28 17.0424 13.3609 17.0424V17.1015H13.3313C13.2489 17.1015 13.1568 17.1171 13.1568 17.3511V18.2462C13.1568 18.3149 13.1587 18.3836 13.1684 18.4446H13.094L12.0844 17.3158V18.126C12.0844 18.2972 12.1177 18.3559 12.2685 18.3559H12.3019V18.4152C12.2177 18.4152 12.1333 18.4074 12.0491 18.4074C11.9606 18.4074 11.8705 18.4152 11.7824 18.4152V18.3559H11.8096C11.945 18.3559 11.9862 18.2638 11.9862 18.1066V17.2782C11.9862 17.1682 11.8961 17.1014 11.808 17.1014H11.7824V17.0425C11.8566 17.0425 11.9334 17.0502 12.0078 17.0502C12.0662 17.0502 12.1233 17.0425 12.1822 17.0425L13.0548 18.0276Z" fill="#211E1F"/>
<path d="M13.1684 18.453L13.0876 18.4503L12.0926 17.338V18.126C12.0949 18.297 12.1207 18.3456 12.2686 18.3475H12.3102V18.4235H12.3015C12.2167 18.4235 12.1327 18.4155 12.0486 18.4155C11.961 18.4155 11.8705 18.4235 11.7822 18.4235H11.7734V18.3475H11.8094C11.9389 18.347 11.976 18.2634 11.9773 18.106V17.2782C11.9771 17.1734 11.8916 17.11 11.8078 17.1098H11.7734V17.0338H11.7822C11.857 17.0338 11.9338 17.0415 12.0077 17.0415C12.0653 17.0415 12.1222 17.0338 12.188 17.0365L13.0498 18.0098V17.2862C13.0493 17.13 12.9449 17.1106 12.8879 17.1098H12.8361V17.0338H12.8447C12.9374 17.0338 13.0277 17.0415 13.1193 17.0415C13.1993 17.0415 13.2796 17.0338 13.3604 17.0338H13.3689V17.1098H13.3313C13.2504 17.112 13.167 17.1193 13.165 17.3512V18.246C13.165 18.3148 13.1667 18.383 13.1766 18.4434L13.1778 18.453H13.1684ZM13.0939 18.4358H13.1583C13.1498 18.3768 13.1478 18.3114 13.1478 18.246V17.3512C13.148 17.1152 13.2472 17.0934 13.3313 17.0926H13.3518V17.051C13.2748 17.0516 13.1972 17.0587 13.1193 17.0587C13.0293 17.0587 12.9418 17.0516 12.853 17.051V17.0926H12.8879C12.9482 17.0934 13.0671 17.1198 13.0671 17.2862L13.0644 18.0297L13.0606 18.0337L13.0546 18.0401L12.182 17.0511C12.1238 17.0511 12.067 17.0587 12.0077 17.0587C11.9351 17.0587 11.8618 17.0516 11.7905 17.0511V17.0927H11.8078C11.8998 17.0934 11.9944 17.163 11.9944 17.2782V18.106C11.9944 18.2639 11.9501 18.3644 11.8095 18.365L11.7905 18.3648V18.4064C11.8751 18.406 11.9626 18.3989 12.0486 18.3989C12.1309 18.3989 12.2123 18.406 12.2934 18.4064V18.365H12.2686C12.1142 18.3648 12.0756 18.297 12.0753 18.1259V17.2939L13.0939 18.4358ZM13.0498 18.0238V18.0231L13.0482 18.0216L13.0498 18.0238ZM13.6761 18.1339C13.6562 18.2006 13.6326 18.2522 13.6326 18.2872C13.6326 18.3464 13.7151 18.356 13.7796 18.356H13.8014V18.4152C13.7223 18.4105 13.6431 18.4079 13.5638 18.4074C13.4933 18.4074 13.423 18.411 13.3524 18.4153V18.3559H13.3642C13.4406 18.3559 13.5055 18.3108 13.5344 18.2281L13.8485 17.3257C13.8738 17.2529 13.9094 17.1545 13.9213 17.0817C13.9837 17.0602 14.0622 17.0209 14.0994 16.9972C14.1054 16.9952 14.1089 16.9931 14.115 16.9931C14.1209 16.9931 14.1246 16.9931 14.129 16.9993C14.1347 17.0148 14.1404 17.0326 14.1467 17.0483L14.5074 18.077C14.5309 18.1457 14.5542 18.2184 14.5796 18.2775C14.6032 18.3326 14.6446 18.3559 14.7094 18.3559H14.721V18.4153C14.6309 18.4105 14.5407 18.4079 14.4506 18.4075C14.3544 18.4075 14.2562 18.411 14.1562 18.4153V18.3559H14.1779C14.2228 18.3559 14.2995 18.3483 14.2995 18.2991C14.2995 18.2735 14.2818 18.2206 14.2599 18.1574L14.1837 17.9293H13.7386L13.6761 18.134V18.1339ZM13.9622 17.2627H13.9582L13.7758 17.8193H14.1422L13.9622 17.2627Z" fill="#211E1F"/>
<path d="M14.7203 18.4235C14.6321 18.4195 14.5438 18.4155 14.4505 18.4155C14.3543 18.4155 14.2567 18.4195 14.1563 18.4235L14.1475 18.4241V18.3472H14.1777C14.2231 18.3472 14.2905 18.3368 14.2905 18.299C14.2911 18.2766 14.2734 18.2227 14.2518 18.1601L14.1772 17.9377H13.7447L13.6838 18.1364C13.6639 18.2034 13.6404 18.2554 13.6405 18.2874C13.6412 18.3354 13.7145 18.3472 13.7795 18.3472H13.8097V18.424L13.8009 18.4235C13.7224 18.4195 13.6423 18.4155 13.5641 18.4155C13.4938 18.4155 13.4232 18.4195 13.3529 18.4235L13.3438 18.4241V18.3472H13.364C13.437 18.3469 13.4979 18.3054 13.5262 18.2253L13.8402 17.3228C13.8658 17.2498 13.9012 17.1518 13.9181 17.0734C13.9801 17.0513 14.0398 17.023 14.0961 16.989C14.1016 16.9872 14.107 16.9845 14.115 16.9845C14.1193 16.9843 14.1236 16.9853 14.1274 16.9873C14.1312 16.9893 14.1344 16.9923 14.1366 16.996C14.1422 17.0122 14.1484 17.0296 14.1543 17.0456L14.5154 18.0741C14.5386 18.1431 14.562 18.2158 14.5875 18.2738C14.6102 18.3263 14.6463 18.347 14.7093 18.3472H14.7293V18.4241L14.7203 18.4235ZM14.1646 18.4059C14.2618 18.4026 14.3568 18.3987 14.4505 18.3987C14.5415 18.3987 14.6268 18.4026 14.7121 18.4059V18.3649H14.7093C14.6422 18.3653 14.5957 18.3389 14.5717 18.2809C14.5461 18.2212 14.5222 18.1482 14.4993 18.0794L14.1382 17.051C14.1323 17.0354 14.1265 17.0174 14.1214 17.0036C14.1198 17.0017 14.1201 17.0017 14.1185 17.0017H14.115C14.1109 17.0017 14.1086 17.0029 14.1036 17.0042C14.0658 17.029 13.9871 17.0675 13.929 17.083C13.9169 17.1574 13.8817 17.2555 13.8561 17.3284L13.5424 18.231C13.5125 18.3163 13.4437 18.365 13.364 18.3649H13.3609V18.4059C13.4281 18.4026 13.4961 18.3987 13.5641 18.3987C13.6398 18.3987 13.7173 18.4026 13.7921 18.4059V18.3649H13.7795C13.7157 18.3641 13.6265 18.3569 13.6241 18.2874C13.6242 18.2482 13.6483 18.1978 13.6674 18.1314L13.676 18.1341L13.6674 18.1312L13.732 17.921H14.1891L14.2678 18.1546C14.2898 18.2178 14.3077 18.2702 14.3077 18.299C14.3049 18.3594 14.2221 18.3637 14.1777 18.3649H14.1646V18.4059ZM13.7638 17.8277L13.9516 17.2541H13.9622H13.9681L14.1541 17.8277H13.7638ZM13.7873 17.8106H14.1305L13.9599 17.2836L13.7873 17.8106ZM14.8071 17.1406C14.6599 17.1406 14.6542 17.1761 14.6246 17.3195H14.5657C14.5734 17.2646 14.5833 17.2096 14.5895 17.1523C14.5974 17.0973 14.6009 17.0424 14.6009 16.9854H14.6482C14.6639 17.0445 14.7131 17.0424 14.7657 17.0424H15.7778C15.8303 17.0424 15.8793 17.0406 15.8833 16.9814L15.9302 16.9893C15.9228 17.0424 15.915 17.0955 15.909 17.1486C15.9048 17.2017 15.9048 17.2549 15.9048 17.3078L15.8461 17.3297C15.8424 17.257 15.8326 17.1406 15.7012 17.1406H15.3796V18.187C15.3796 18.3386 15.4484 18.3559 15.5422 18.3559H15.5794V18.4152C15.503 18.4152 15.366 18.4074 15.26 18.4074C15.1425 18.4074 15.005 18.4152 14.9286 18.4152V18.3559H14.9657C15.0737 18.3559 15.1288 18.3462 15.1288 18.191V17.1406H14.8071Z" fill="#211E1F"/>
<path d="M15.5796 18.4235C15.5026 18.4235 15.3653 18.4155 15.2601 18.4155C15.1429 18.4155 15.0056 18.4235 14.9287 18.4235H14.9201V18.3474H14.9658C15.0739 18.3448 15.1173 18.3434 15.1201 18.191L15.1197 17.1492H14.8072V17.1318H15.137V18.191C15.137 18.3488 15.0735 18.3643 14.9658 18.3646H14.937V18.4067C15.0146 18.4059 15.1463 18.3988 15.2601 18.3988C15.3625 18.3988 15.4935 18.4059 15.571 18.4067V18.3647H15.5421C15.4478 18.3643 15.3714 18.3415 15.3712 18.187V17.1318H15.7013C15.8329 17.1324 15.8501 17.2446 15.8538 17.3175L15.8966 17.3018C15.8966 17.2506 15.8968 17.1992 15.9006 17.1477C15.906 17.097 15.9133 17.0466 15.9206 16.9965L15.8909 16.9914C15.882 17.0486 15.8266 17.0518 15.7778 17.051H14.7559C14.7097 17.0515 14.6597 17.0488 14.6418 16.9936H14.6098C14.6095 17.0471 14.6055 17.1004 14.5978 17.1534C14.5926 17.2075 14.5829 17.2596 14.5757 17.3113H14.6177C14.6437 17.1742 14.6606 17.1298 14.8072 17.1318V17.1492C14.6618 17.1516 14.6651 17.1763 14.633 17.3217L14.6315 17.3283H14.5559L14.5571 17.3185C14.5653 17.263 14.5751 17.2082 14.5808 17.1513C14.5888 17.0964 14.5926 17.0418 14.5926 16.9854V16.9768H14.6546L14.6562 16.983C14.67 17.0326 14.7057 17.0328 14.7559 17.0337L14.7658 17.0339H15.7778C15.8319 17.0329 15.8714 17.032 15.8749 16.9808L15.8754 16.9714L15.8846 16.9733L15.9402 16.9821L15.9388 16.9906C15.9306 17.0433 15.9234 17.0962 15.9173 17.1492C15.9133 17.2015 15.9133 17.2548 15.9133 17.3078V17.3139L15.9078 17.3161L15.8382 17.3414L15.8379 17.3299C15.8329 17.2561 15.8251 17.1491 15.7013 17.1491H15.3881V18.187C15.3902 18.3353 15.4488 18.3455 15.5421 18.3474H15.588V18.4234H15.5796V18.4235ZM16.0028 18.3558H16.0302C16.101 18.3558 16.1751 18.3463 16.1751 18.2438V17.2137C16.1751 17.1111 16.101 17.1014 16.0303 17.1014H16.0028V17.0424C16.0793 17.0424 16.1968 17.0502 16.2926 17.0502C16.391 17.0502 16.5086 17.0424 16.6009 17.0424V17.1014H16.5733C16.5028 17.1014 16.4281 17.1111 16.4281 17.2137V18.2439C16.4281 18.3463 16.5028 18.3559 16.5733 18.3559H16.6009V18.4151C16.5066 18.4151 16.3889 18.4074 16.2911 18.4074C16.1949 18.4074 16.0793 18.4152 16.0028 18.4152V18.3558Z" fill="#211E1F"/>
<path d="M16.6008 18.4235C16.5061 18.4235 16.3887 18.4155 16.2909 18.4155C16.1951 18.4155 16.0793 18.4235 16.0027 18.4235H15.9941V18.3474H16.0301C16.101 18.3463 16.166 18.3402 16.1663 18.2439V17.2137C16.166 17.1177 16.101 17.1111 16.0301 17.1098H15.9941V17.034H16.0027C16.0793 17.034 16.197 17.0414 16.2925 17.0414C16.3903 17.0414 16.5079 17.034 16.6008 17.034H16.6091V17.1098H16.5733C16.5017 17.1111 16.4373 17.1177 16.4364 17.2137V18.2439C16.4373 18.3402 16.5017 18.3463 16.5733 18.3474H16.6091V18.4234H16.6008V18.4235ZM16.592 18.4063V18.3647H16.5733C16.503 18.3647 16.4198 18.3523 16.4198 18.2439V17.2137C16.4198 17.105 16.503 17.0927 16.5733 17.0927H16.592V17.051C16.5014 17.0515 16.3881 17.0586 16.2925 17.0586C16.1997 17.0586 16.0873 17.0515 16.0113 17.051V17.0927H16.0302C16.0999 17.0927 16.1834 17.105 16.1837 17.2137V18.2439C16.1834 18.3523 16.0999 18.3647 16.0302 18.3647H16.0113V18.4063C16.0869 18.4055 16.1978 18.3988 16.2909 18.3988C16.386 18.3988 16.4995 18.4059 16.5919 18.4063H16.592ZM17.3826 17.013C17.8005 17.013 18.1337 17.2729 18.1337 17.6916C18.1337 18.144 17.8102 18.4446 17.3929 18.4446C16.9768 18.4446 16.6594 18.1614 16.6594 17.7386C16.6594 17.3297 16.9749 17.013 17.3826 17.013ZM17.4122 18.3581C17.7927 18.3581 17.8589 18.0215 17.8589 17.7348C17.8589 17.4474 17.7045 17.0994 17.3789 17.0994C17.0357 17.0994 16.9338 17.4062 16.9338 17.6695C16.9338 18.0215 17.0945 18.3581 17.4122 18.3581Z" fill="#211E1F"/>
<path d="M16.6509 17.7386C16.6517 17.325 16.9709 17.005 17.3827 17.0044V17.0213C16.9798 17.0213 16.6678 17.3339 16.6675 17.7386C16.6684 18.1567 16.9813 18.4357 17.393 18.4358C17.8062 18.4357 18.1251 18.1392 18.1258 17.6912C18.1254 17.2778 17.7972 17.0218 17.3827 17.0213V17.0044C17.8039 17.0046 18.1415 17.2671 18.1424 17.6912C18.142 18.1483 17.8143 18.4522 17.393 18.453C16.9737 18.4522 16.6517 18.1661 16.6509 17.7386V17.7386ZM16.9255 17.6695C16.9261 17.405 17.0291 17.0906 17.3791 17.0906C17.7119 17.0914 17.8674 17.4459 17.8679 17.7348C17.8673 18.0216 17.8 18.3662 17.4126 18.3662V18.3496C17.7854 18.3491 17.8499 18.0216 17.8509 17.7348C17.8509 17.4498 17.6978 17.1084 17.3791 17.108C17.0427 17.1084 16.9431 17.4076 16.9426 17.6695C16.9428 18.0198 17.102 18.3488 17.4126 18.3496V18.3662C17.087 18.3658 16.9261 18.0236 16.9255 17.6694V17.6695ZM19.4551 18.0276L19.4591 18.0238V17.2864C19.4591 17.125 19.3471 17.1015 19.2882 17.1015H19.2458V17.0424C19.3377 17.0424 19.4278 17.0502 19.5197 17.0502C19.6003 17.0502 19.6806 17.0424 19.7612 17.0424V17.1015H19.7316C19.6494 17.1015 19.5571 17.1171 19.5571 17.3511V18.2462C19.5571 18.3149 19.559 18.3836 19.569 18.4446H19.4946L18.4846 17.3158V18.126C18.4846 18.2972 18.5178 18.3559 18.6687 18.3559H18.7023V18.4152C18.6178 18.4152 18.5338 18.4074 18.4494 18.4074C18.3612 18.4074 18.2708 18.4152 18.1826 18.4152V18.3559H18.2102C18.3457 18.3559 18.3863 18.2638 18.3863 18.1066V17.2782C18.3863 17.1682 18.2966 17.1014 18.2081 17.1014H18.1825V17.0425C18.257 17.0425 18.3336 17.0502 18.4079 17.0502C18.4668 17.0502 18.5235 17.0425 18.5826 17.0425L19.4551 18.0276Z" fill="#211E1F"/>
<path d="M19.5689 18.453L19.4878 18.4502L18.493 17.3379V18.1261C18.4951 18.297 18.521 18.3454 18.6683 18.3472H18.7107V18.4236H18.7022C18.6172 18.4236 18.533 18.4156 18.4493 18.4156C18.3613 18.4156 18.2713 18.4236 18.1822 18.4236H18.1741V18.3472H18.21C18.3393 18.3468 18.3764 18.2634 18.378 18.1066V17.2782C18.3778 17.1735 18.2922 17.11 18.2079 17.1098H18.1741V17.034H18.1822C18.2574 17.034 18.3338 17.0415 18.4078 17.0415C18.466 17.0415 18.5226 17.034 18.5889 17.0369L19.4503 18.0098V17.2866C19.4498 17.1301 19.3454 17.1112 19.2879 17.1098H19.2365V17.0341H19.2453C19.3376 17.0341 19.428 17.0416 19.5193 17.0416C19.5998 17.0416 19.6797 17.0341 19.761 17.0341H19.7694V17.1098H19.7314C19.6507 17.1122 19.5673 17.1195 19.5656 17.3512V18.2461C19.5656 18.3148 19.5671 18.3834 19.5766 18.4435L19.5782 18.453H19.5689ZM19.4945 18.4358H19.5586C19.55 18.3768 19.5486 18.3114 19.5486 18.246V17.3512C19.5486 17.1147 19.6474 17.0934 19.7314 17.0926H19.7526V17.051C19.6753 17.0516 19.5978 17.0587 19.5194 17.0587C19.4302 17.0587 19.3424 17.0516 19.2537 17.051V17.0926H19.2881C19.3489 17.0934 19.4671 17.1202 19.4671 17.2866L19.465 18.0297L19.4613 18.0337L19.455 18.0401L18.5824 17.0511C18.5246 17.0511 18.4674 17.0587 18.4078 17.0587C18.3357 17.0587 18.2621 17.0516 18.1907 17.0511V17.0927H18.208C18.3 17.0934 18.3948 17.163 18.3948 17.2782V18.1066C18.3948 18.2638 18.351 18.3644 18.21 18.365L18.1907 18.3648V18.4064C18.2758 18.406 18.3631 18.3989 18.4493 18.3989C18.531 18.3989 18.6122 18.406 18.6937 18.4064V18.365H18.6683C18.5145 18.3648 18.476 18.297 18.476 18.1261V17.2936L19.4944 18.4358H19.4945ZM19.4504 18.0238V18.0231L19.4488 18.0216L19.4504 18.0238ZM20.0761 18.1339C20.0569 18.2006 20.0331 18.2522 20.0331 18.2872C20.0331 18.3464 20.1157 18.356 20.18 18.356H20.2018V18.4152C20.1228 18.4105 20.0436 18.4079 19.9645 18.4074C19.8936 18.4074 19.8234 18.411 19.753 18.4153V18.3559H19.7642C19.841 18.3559 19.906 18.3108 19.935 18.2281L20.249 17.3257C20.2743 17.2529 20.3098 17.1545 20.3213 17.0817C20.3835 17.0594 20.4433 17.0311 20.5 16.9972C20.5056 16.9952 20.5096 16.9931 20.5155 16.9931C20.5214 16.9931 20.525 16.9931 20.529 16.9993C20.535 17.0148 20.5411 17.0326 20.547 17.0483L20.9075 18.077C20.931 18.1457 20.9544 18.2184 20.9802 18.2775C21.0038 18.3326 21.045 18.3559 21.1095 18.3559H21.1215V18.4153C21.0313 18.4105 20.941 18.4079 20.8506 18.4075C20.7526 18.408 20.6545 18.4106 20.5566 18.4153V18.3559H20.5783C20.6231 18.3559 20.7 18.3483 20.7 18.2991C20.7 18.2735 20.6822 18.2206 20.6603 18.1574L20.5842 17.9293H20.139L20.0761 18.134V18.1339ZM20.3627 17.2627H20.3587L20.1762 17.8193H20.5431L20.3627 17.2627Z" fill="#211E1F"/>
<path d="M21.1205 18.4235C21.0323 18.42 20.9442 18.4156 20.8505 18.4156C20.755 18.4156 20.6569 18.42 20.5568 18.4236L20.5481 18.4241V18.3474H20.5778C20.6234 18.3474 20.6911 18.3368 20.6912 18.299C20.6916 18.2766 20.674 18.223 20.6521 18.1601L20.5776 17.9377H20.1448L20.0841 18.1364C20.0646 18.2038 20.0412 18.2554 20.0416 18.2872C20.0416 18.3354 20.115 18.3474 20.1799 18.3474H20.2098V18.4241L20.201 18.4235C20.1226 18.42 20.0424 18.4156 19.9644 18.4156C19.8941 18.4156 19.8236 18.42 19.7529 18.4236L19.7444 18.4241V18.3474H19.7641C19.8373 18.3472 19.8985 18.305 19.927 18.2253L20.2408 17.3228C20.2658 17.2498 20.3011 17.1518 20.3185 17.0737C20.3801 17.0522 20.4589 17.013 20.4969 16.989C20.5021 16.9872 20.5073 16.985 20.5153 16.985C20.5197 16.9845 20.524 16.9854 20.5279 16.9874C20.5317 16.9894 20.5349 16.9925 20.5369 16.9963C20.5427 17.0118 20.5485 17.0296 20.5549 17.0456L20.9155 18.0741C20.9389 18.143 20.9625 18.2157 20.9878 18.2742C21.0109 18.3263 21.0466 18.3469 21.1091 18.3474H21.1295V18.4241L21.1205 18.4235ZM20.5649 18.4062C20.6618 18.4026 20.7573 18.3987 20.8505 18.3987C20.9417 18.3987 21.0273 18.4026 21.1127 18.4059L21.1124 18.3649H21.1092C21.0428 18.365 20.9965 18.3389 20.9721 18.2809C20.9463 18.2212 20.9229 18.1482 20.8995 18.0796L20.5387 17.051C20.5328 17.0354 20.5269 17.0174 20.5221 17.0042C20.5205 17.0017 20.5206 17.0017 20.5191 17.0017H20.5154C20.5113 17.0017 20.5091 17.003 20.5044 17.0044C20.4662 17.0286 20.3876 17.0678 20.3296 17.083C20.3174 17.1574 20.2818 17.2554 20.2565 17.3284L19.9426 18.231C19.9129 18.3163 19.8443 18.365 19.7641 18.3649H19.7613V18.4059C19.8287 18.4026 19.8961 18.3987 19.9644 18.3987C20.0404 18.3987 20.1177 18.4026 20.1932 18.4059V18.3649H20.1798C20.1161 18.3641 20.0266 18.3571 20.0243 18.2872C20.0247 18.2482 20.0491 18.1982 20.068 18.1314L20.076 18.1341L20.068 18.1312L20.1325 17.921H20.5898L20.6684 18.1546C20.69 18.2179 20.7078 18.2702 20.7078 18.299C20.7049 18.3594 20.6227 18.3637 20.5778 18.3649H20.5649L20.5649 18.4062ZM20.1644 17.8275L20.3524 17.2541H20.3626H20.3687L20.5541 17.8275H20.1644ZM20.1879 17.8106H20.5308L20.3603 17.2839L20.1879 17.8106ZM20.3545 17.2651L20.3584 17.2636L20.3544 17.2651H20.3545ZM21.6154 18.2224C21.6154 18.3011 21.6698 18.3246 21.7326 18.3326C21.813 18.3386 21.9013 18.3386 21.9918 18.3286C22.0739 18.3187 22.1446 18.2715 22.1797 18.2224C22.2109 18.179 22.2286 18.124 22.2405 18.0808H22.2973C22.2758 18.1928 22.2483 18.3032 22.2247 18.4152C22.0525 18.4152 21.8797 18.4074 21.7073 18.4074C21.5345 18.4074 21.3623 18.4152 21.1897 18.4152V18.3559H21.2167C21.2877 18.3559 21.3644 18.3463 21.3644 18.2243V17.2137C21.3644 17.1111 21.2876 17.1015 21.2167 17.1015H21.1897V17.0425C21.2933 17.0425 21.3955 17.0502 21.4992 17.0502C21.5995 17.0502 21.6974 17.0425 21.7975 17.0425V17.1015H21.7481C21.6739 17.1015 21.6154 17.1037 21.6154 17.2076V18.2224Z" fill="#211E1F"/>
<path d="M22.2247 18.4235C22.0519 18.4235 21.8794 18.4157 21.7074 18.4157C21.5347 18.4157 21.3622 18.4235 21.1894 18.4235H21.1811V18.3475H21.2167C21.2879 18.3458 21.355 18.341 21.3558 18.2243V17.2134C21.355 17.1178 21.2882 17.1112 21.2167 17.1098H21.1811V17.034H21.1894C21.2937 17.034 21.3958 17.0415 21.4994 17.0415C21.599 17.0415 21.6968 17.034 21.7975 17.034H21.8056V17.1098H21.7483C21.6723 17.112 21.625 17.1085 21.6235 17.2076V18.2225C21.6241 18.2957 21.6719 18.3154 21.7331 18.3241C21.7678 18.3265 21.8041 18.328 21.8419 18.328C21.8899 18.328 21.9398 18.3257 21.9904 18.3202C22.0703 18.3108 22.1391 18.2646 22.1728 18.2177C22.203 18.1757 22.2204 18.1217 22.2321 18.0787L22.2339 18.0722H22.3077L22.3059 18.0826C22.2838 18.195 22.2569 18.305 22.2331 18.4169L22.2315 18.4236L22.2247 18.4235ZM22.2177 18.4064C22.2404 18.2998 22.2661 18.1954 22.2872 18.0891H22.2469C22.2346 18.1319 22.2173 18.1846 22.1864 18.2276C22.1498 18.2786 22.0772 18.3266 21.9922 18.3371C21.9409 18.3424 21.89 18.3451 21.8418 18.3451C21.8039 18.3451 21.7671 18.3434 21.7316 18.3409C21.6678 18.3338 21.606 18.3065 21.6062 18.2225V17.2075C21.6062 17.0983 21.6752 17.0927 21.7483 17.0927H21.7889V17.051C21.6922 17.0515 21.597 17.0587 21.4994 17.0587C21.3978 17.0587 21.2986 17.0515 21.198 17.051V17.0927H21.2167C21.2867 17.0927 21.3724 17.105 21.3724 17.2132V18.2242C21.3724 18.3514 21.2871 18.3647 21.2167 18.3647H21.198V18.4063C21.3675 18.4062 21.537 18.3988 21.7074 18.3988C21.8778 18.3988 22.048 18.4062 22.2177 18.4063V18.4064ZM22.2735 16.9866C22.3917 16.9866 22.4799 17.0777 22.4799 17.1943C22.4799 17.3106 22.3917 17.4007 22.2735 17.4007C22.1554 17.4007 22.067 17.3106 22.067 17.1943C22.067 17.0777 22.1554 16.9866 22.2735 16.9866ZM22.2735 17.3622C22.3658 17.3622 22.4369 17.2831 22.4369 17.1943C22.4369 17.105 22.367 17.0253 22.2735 17.0253C22.1807 17.0253 22.1097 17.105 22.1097 17.1943C22.1097 17.2831 22.1807 17.3622 22.2735 17.3622ZM22.1707 17.3034V17.2932C22.1962 17.2897 22.2008 17.2905 22.2008 17.2746V17.1214C22.2008 17.0998 22.1984 17.0925 22.1717 17.0936V17.0831H22.2773C22.3138 17.0831 22.3471 17.1004 22.3471 17.1381C22.3471 17.1689 22.3267 17.1917 22.2983 17.2005L22.3322 17.2479C22.348 17.2695 22.3658 17.2897 22.3777 17.2967V17.3034H22.3374C22.3182 17.3034 22.3013 17.2626 22.2632 17.208H22.2403V17.2768C22.2403 17.2904 22.2451 17.2896 22.2706 17.2932V17.3034H22.1707ZM22.2403 17.1943H22.2647C22.2914 17.1943 22.3038 17.1741 22.3038 17.1415C22.3038 17.1085 22.2846 17.0969 22.2634 17.0969H22.2403V17.1943ZM5.78344 14.1329C5.78344 13.8078 5.6144 13.8292 5.45232 13.8257V13.7318C5.5928 13.7387 5.7368 13.7387 5.87752 13.7387C6.0288 13.7387 6.23432 13.7318 6.50096 13.7318C7.43392 13.7318 7.942 14.3568 7.942 14.9968C7.942 15.3547 7.7332 16.2544 6.4576 16.2544C6.27392 16.2544 6.1044 16.2474 5.9352 16.2474C5.77304 16.2474 5.6144 16.251 5.45232 16.2545V16.1606C5.66832 16.1388 5.77312 16.1316 5.78336 15.8858V14.133L5.78344 14.1329ZM6.13664 15.8281C6.13664 16.1064 6.33504 16.1389 6.51144 16.1389C7.29 16.1389 7.5456 15.5497 7.5456 15.0111C7.5456 14.3355 7.11312 13.8476 6.41784 13.8476C6.26984 13.8476 6.20184 13.8582 6.13664 13.8621V15.8281ZM8.06848 16.1606H8.13672C8.23752 16.1606 8.30968 16.1606 8.30968 16.0411V15.0618C8.30968 14.903 8.25568 14.8809 8.12232 14.809V14.7511C8.2916 14.7001 8.4936 14.6319 8.50776 14.621C8.5332 14.6066 8.55464 14.6027 8.57272 14.6027C8.59056 14.6027 8.59808 14.6246 8.59808 14.6536V16.0411C8.59808 16.1606 8.67728 16.1606 8.77816 16.1606H8.83936V16.2546C8.71672 16.2546 8.59056 16.2474 8.46112 16.2474C8.33144 16.2474 8.2016 16.251 8.06848 16.2546V16.1606ZM8.45392 14.0462C8.36008 14.0462 8.27744 13.9596 8.27744 13.8656C8.27744 13.7751 8.36392 13.6918 8.45392 13.6918C8.54728 13.6918 8.63056 13.768 8.63056 13.8656C8.63056 13.9632 8.55096 14.0462 8.45392 14.0462ZM9.18168 15.0834C9.18168 14.9498 9.14184 14.9138 8.97288 14.845V14.7765C9.12768 14.7259 9.27528 14.6789 9.44832 14.6028C9.45904 14.6028 9.4696 14.6102 9.4696 14.6389V14.8739C9.67536 14.7259 9.852 14.6027 10.0937 14.6027C10.3996 14.6027 10.5077 14.8269 10.5077 15.1087V16.0411C10.5077 16.1606 10.5869 16.1606 10.6879 16.1606H10.7528V16.2546C10.6264 16.2546 10.5003 16.2474 10.3709 16.2474C10.241 16.2474 10.1112 16.251 9.98168 16.2546V16.1606H10.0463C10.1475 16.1606 10.2191 16.1606 10.2191 16.0411V15.1053C10.2191 14.899 10.0937 14.798 9.88792 14.798C9.7728 14.798 9.58896 14.8919 9.4696 14.9716V16.041C9.4696 16.1606 9.54928 16.1606 9.65032 16.1606H9.71504V16.2546C9.58896 16.2546 9.46272 16.2474 9.33296 16.2474C9.20336 16.2474 9.07344 16.251 8.94384 16.2546V16.1606H9.00888C9.10968 16.1606 9.18168 16.1606 9.18168 16.041V15.0834ZM11.0268 15.257C11.0193 15.2897 11.0193 15.3438 11.0268 15.4668C11.048 15.81 11.2684 16.0918 11.5562 16.0918C11.7546 16.0918 11.9098 15.9834 12.043 15.8498L12.0932 15.9006C11.9274 16.1209 11.722 16.3087 11.4268 16.3087C10.8537 16.3087 10.7384 15.752 10.7384 15.521C10.7384 14.8125 11.2139 14.6027 11.466 14.6027C11.758 14.6027 12.0718 14.787 12.0751 15.1701C12.0751 15.192 12.0751 15.2134 12.0718 15.2354L12.0391 15.257H11.0268ZM11.6647 15.1414C11.7546 15.1414 11.7652 15.0943 11.7652 15.051C11.7652 14.8667 11.6535 14.7185 11.4516 14.7185C11.2321 14.7185 11.0807 14.8809 11.0375 15.1414H11.6647ZM12.1581 16.1606H12.2554C12.356 16.1606 12.4281 16.1606 12.4281 16.0411V15.0257C12.4281 14.9137 12.295 14.8919 12.2408 14.863V14.809C12.5038 14.6968 12.6481 14.6027 12.6808 14.6027C12.7022 14.6027 12.7128 14.6137 12.7128 14.6499V14.9751H12.7204C12.8103 14.8343 12.9619 14.6027 13.1814 14.6027C13.2716 14.6027 13.3868 14.6641 13.3868 14.7943C13.3868 14.8919 13.3185 14.979 13.2177 14.979C13.1055 14.979 13.1055 14.8919 12.9796 14.8919C12.9182 14.8919 12.7166 14.9751 12.7166 15.192V16.0411C12.7166 16.1606 12.7886 16.1606 12.8896 16.1606H13.0912V16.2546C12.893 16.251 12.7422 16.2474 12.587 16.2474C12.4393 16.2474 12.2878 16.251 12.1582 16.2546L12.1581 16.1606ZM13.5454 15.752C13.5924 15.9906 13.7363 16.1931 13.9995 16.1931C14.2117 16.1931 14.291 16.063 14.291 15.9366C14.291 15.51 13.5058 15.6474 13.5058 15.0655C13.5058 14.863 13.6681 14.6027 14.0642 14.6027C14.1794 14.6027 14.3342 14.6355 14.4747 14.7078L14.5002 15.0762H14.4172C14.3812 14.8487 14.2553 14.7186 14.0244 14.7186C13.8803 14.7186 13.7435 14.8018 13.7435 14.957C13.7435 15.3802 14.5794 15.2498 14.5794 15.8171C14.5794 16.0555 14.3884 16.3088 13.9595 16.3088C13.8154 16.3088 13.6462 16.2582 13.5202 16.1861L13.4804 15.7703L13.5454 15.752ZM17.833 14.3859H17.7432C17.6746 13.9633 17.3756 13.7932 16.9722 13.7932C16.5575 13.7932 15.9558 14.0714 15.9558 14.9387C15.9558 15.6693 16.475 16.1931 17.0297 16.1931C17.3863 16.1931 17.682 15.9474 17.7541 15.5678L17.8367 15.5894L17.7541 16.117C17.6027 16.2112 17.1955 16.3087 16.9574 16.3087C16.1146 16.3087 15.5814 15.763 15.5814 14.9498C15.5814 14.2088 16.2406 13.6774 16.9469 13.6774C17.2386 13.6774 17.5197 13.7717 17.7971 13.8694L17.833 14.3859ZM17.963 16.1606H18.0313C18.1323 16.1606 18.2046 16.1606 18.2046 16.0411V14.0283C18.2046 13.7932 18.1506 13.786 18.0134 13.7463V13.6885C18.1576 13.6416 18.309 13.5765 18.3846 13.533C18.4238 13.5114 18.453 13.4931 18.4637 13.4931C18.4857 13.4931 18.4929 13.515 18.4929 13.544V16.0411C18.4929 16.1606 18.572 16.1606 18.673 16.1606H18.7338V16.2546C18.6118 16.2546 18.4857 16.2474 18.3558 16.2474C18.2262 16.2474 18.0966 16.251 17.963 16.2546V16.1606ZM20.2766 16.0555C20.2766 16.1209 20.3161 16.1244 20.3772 16.1244C20.4206 16.1244 20.4745 16.1209 20.5214 16.1209V16.1969C20.3664 16.2113 20.0709 16.2873 20.0024 16.3087L19.9843 16.2978V16.0054C19.7683 16.1823 19.6024 16.3087 19.3464 16.3087C19.1518 16.3087 18.9501 16.1823 18.9501 15.879V14.9534C18.9501 14.8595 18.9357 14.769 18.7343 14.7511V14.6823C18.8642 14.6788 19.1518 14.6571 19.1989 14.6571C19.2389 14.6571 19.2389 14.6824 19.2389 14.7619V15.6941C19.2389 15.8027 19.2389 16.1134 19.5521 16.1134C19.6745 16.1134 19.8366 16.0195 19.9878 15.8934V14.9206C19.9878 14.8486 19.815 14.809 19.6856 14.7727V14.7077C20.0094 14.6859 20.2116 14.6571 20.2474 14.6571C20.2766 14.6571 20.2766 14.6823 20.2766 14.7223V16.0555ZM20.9936 14.863C21.1376 14.7402 21.332 14.6027 21.5304 14.6027C21.9486 14.6027 22.2005 14.9682 22.2005 15.3618C22.2005 15.8352 21.8547 16.3087 21.3391 16.3087C21.0726 16.3087 20.9322 16.2219 20.8383 16.1823L20.7305 16.2652L20.655 16.2257C20.687 16.0125 20.7054 15.8027 20.7054 15.5824V14.0283C20.7054 13.7932 20.651 13.786 20.5142 13.7463V13.6885C20.6587 13.6416 20.8096 13.5765 20.8854 13.533C20.925 13.5114 20.9537 13.4931 20.9649 13.4931C20.9863 13.4931 20.9935 13.515 20.9935 13.544L20.9936 14.863ZM20.9936 15.846C20.9936 15.9834 21.1231 16.215 21.3646 16.215C21.7502 16.215 21.9122 15.8352 21.9122 15.5134C21.9122 15.1232 21.617 14.798 21.3359 14.798C21.2022 14.798 21.0908 14.8849 20.9935 14.9682L20.9936 15.846ZM5.44824 18.3559H5.47584C5.54624 18.3559 5.62072 18.3463 5.62072 18.2439V17.2137C5.62072 17.1111 5.54624 17.1014 5.47584 17.1014H5.44824V17.0424C5.5248 17.0424 5.6424 17.0502 5.7388 17.0502C5.83664 17.0502 5.95416 17.0424 6.04632 17.0424V17.1014H6.01872C5.9484 17.1014 5.87376 17.1111 5.87376 17.2137V18.2439C5.87376 18.3463 5.9484 18.3559 6.01872 18.3559H6.04632V18.4152C5.95224 18.4152 5.83432 18.4074 5.73656 18.4074C5.64048 18.4074 5.5248 18.4152 5.44824 18.4152V18.3559Z" fill="#211E1F"/>
<path d="M6.04642 18.4235C5.9517 18.4235 5.83426 18.4156 5.73658 18.4156C5.64074 18.4156 5.52546 18.4235 5.44834 18.4235H5.43994V18.3474H5.47586C5.5469 18.3458 5.61162 18.3401 5.61234 18.2439V17.2137C5.61162 17.1175 5.5469 17.1111 5.47586 17.1098H5.43994V17.0337H5.44834C5.52546 17.0337 5.6429 17.0414 5.73874 17.0414C5.83634 17.0414 5.9537 17.0337 6.04642 17.0337H6.05522V17.1098H6.01898C5.94786 17.1111 5.88274 17.1175 5.88234 17.2137V18.2439C5.88274 18.3401 5.94786 18.3458 6.01898 18.3474H6.05514V18.4234H6.04642V18.4235ZM6.03802 18.4067V18.3647H6.01898C5.94898 18.3647 5.86562 18.3526 5.86522 18.2439V17.2137C5.86562 17.105 5.94898 17.0927 6.01898 17.0927H6.03802V17.051C5.94746 17.051 5.83394 17.0586 5.73882 17.0586C5.64562 17.0586 5.5329 17.0515 5.45706 17.051V17.0927H5.47578C5.5457 17.0927 5.62938 17.105 5.62938 17.2137V18.2439C5.62938 18.3526 5.5457 18.3647 5.47578 18.3647H5.45706V18.4067C5.5329 18.4059 5.6437 18.3988 5.73658 18.3988C5.83202 18.3988 5.94554 18.4062 6.03802 18.4067ZM7.39338 18.0275L7.39738 18.0237V17.2863C7.39738 17.1249 7.28538 17.1015 7.22674 17.1015H7.18346V17.0423C7.27578 17.0423 7.36586 17.0502 7.45794 17.0502C7.53826 17.0502 7.61906 17.0424 7.6993 17.0424V17.1014H7.66994C7.58738 17.1014 7.49522 17.1171 7.49522 17.351V18.2461C7.49522 18.3149 7.49722 18.3835 7.5069 18.4445H7.43226L6.42274 17.3157V18.126C6.42274 18.2971 6.45578 18.3558 6.60698 18.3558H6.64018V18.4152C6.55602 18.4152 6.47186 18.4074 6.38738 18.4074C6.29938 18.4074 6.20914 18.4152 6.12082 18.4152V18.3558H6.14826C6.28354 18.3558 6.32458 18.2637 6.32458 18.1065V17.2782C6.32458 17.1682 6.23418 17.1014 6.14634 17.1014H6.12074V17.0424C6.1953 17.0424 6.2717 17.0502 6.3461 17.0502C6.40498 17.0502 6.46194 17.0424 6.52066 17.0424L7.39338 18.0275Z" fill="#211E1F"/>
<path d="M7.50686 18.4531L7.42606 18.4501L6.43102 17.3379V18.126C6.43342 18.297 6.45934 18.3455 6.60702 18.3474H6.64902V18.4235H6.64022C6.55542 18.4235 6.47102 18.4156 6.38742 18.4156C6.29958 18.4156 6.20958 18.4236 6.12062 18.4236H6.11206V18.3474H6.14822C6.27782 18.3468 6.31478 18.2634 6.31622 18.1066V17.2783C6.31598 17.1736 6.23038 17.1101 6.1463 17.1098H6.11206V17.034H6.12062C6.19558 17.034 6.27238 17.0415 6.3459 17.0415C6.4043 17.0415 6.4611 17.034 6.52718 17.0369L7.38878 18.0097V17.2865C7.38774 17.13 7.28374 17.1112 7.22662 17.1098H7.1747V17.034H7.18342C7.27606 17.034 7.3663 17.0415 7.4579 17.0415C7.53774 17.0415 7.61806 17.034 7.6991 17.034H7.70766V17.1098H7.6699C7.58902 17.1122 7.5059 17.1192 7.50366 17.3511V18.246C7.50366 18.3147 7.50566 18.3834 7.51518 18.443L7.5171 18.4531H7.50686ZM7.43246 18.4358H7.49726C7.48846 18.3767 7.48686 18.3113 7.48686 18.246V17.3511C7.48686 17.1151 7.5855 17.0927 7.6699 17.0927H7.69062V17.051C7.61334 17.0516 7.5359 17.0586 7.45798 17.0586C7.36822 17.0586 7.28094 17.0516 7.19214 17.051L7.19206 17.0927H7.2267C7.28694 17.0927 7.4059 17.1198 7.4059 17.2865L7.40318 18.0296L7.39918 18.0337L7.39262 18.0398L6.52062 17.051C6.46246 17.051 6.40566 17.0586 6.34598 17.0586C6.27398 17.0586 6.20046 17.0516 6.12942 17.051L6.12894 17.0927H6.14638C6.23838 17.0927 6.33294 17.1632 6.33294 17.2783V18.1065C6.33294 18.2637 6.28926 18.3643 6.1483 18.3649L6.12942 18.3643V18.4067C6.21438 18.4059 6.30166 18.3988 6.38742 18.3988C6.46926 18.3988 6.5507 18.406 6.63174 18.4068V18.3649H6.60694C6.4527 18.3643 6.41438 18.297 6.41414 18.126V17.2936L7.43246 18.4358ZM7.38886 18.0236V18.023L7.38726 18.0216L7.38886 18.0236ZM7.99286 17.1406C7.84558 17.1406 7.84006 17.1761 7.81062 17.3195H7.75174C7.7595 17.2646 7.76934 17.2096 7.77526 17.1523C7.78318 17.0973 7.78694 17.0424 7.78694 16.9854H7.83414C7.8499 17.0445 7.89894 17.0424 7.95206 17.0424H8.96342C9.01646 17.0424 9.06542 17.0406 9.0695 16.9814L9.11622 16.9893C9.10862 17.0424 9.1007 17.0955 9.09478 17.1486C9.09126 17.2017 9.09126 17.2549 9.09126 17.3078L9.03222 17.3298C9.02814 17.257 9.01838 17.1406 8.88718 17.1406H8.56558V18.187C8.56558 18.3386 8.6343 18.3559 8.72806 18.3559H8.7655V18.4152C8.68902 18.4152 8.55158 18.4074 8.44598 18.4074C8.32838 18.4074 8.19094 18.4152 8.11438 18.4152V18.3559H8.15174C8.25982 18.3559 8.31446 18.3462 8.31446 18.191V17.1406H7.99286Z" fill="#211E1F"/>
<path d="M8.76587 18.4235C8.68867 18.4235 8.55147 18.4156 8.44611 18.4156C8.32867 18.4156 8.19147 18.4235 8.11451 18.4235H8.10635V18.3474H8.15195C8.25995 18.3449 8.30347 18.3434 8.30595 18.191V17.1491H7.99291V17.1318H8.32283V18.191C8.32283 18.3487 8.25955 18.3646 8.15187 18.3648H8.12307V18.4062C8.20035 18.4058 8.33227 18.3987 8.44603 18.3987C8.54827 18.3987 8.67939 18.4058 8.75683 18.4062V18.3648H8.72819C8.63339 18.3646 8.55715 18.3414 8.55715 18.1869V17.1318H8.88723C9.01883 17.1323 9.03603 17.2446 9.04035 17.3175L9.08259 17.3018C9.08259 17.2506 9.08291 17.1991 9.08643 17.1474C9.09211 17.0967 9.09931 17.0466 9.10667 16.9964L9.07675 16.9914C9.06763 17.0486 9.01259 17.0514 8.96315 17.051H7.94203C7.89595 17.051 7.84555 17.0487 7.82795 16.9938H7.79563C7.79539 17.0472 7.79163 17.1005 7.78403 17.1533C7.77835 17.2074 7.76939 17.2593 7.76203 17.3112H7.80403C7.82987 17.1742 7.84667 17.1298 7.99291 17.1318V17.1491C7.84803 17.1517 7.85107 17.1762 7.81915 17.3216L7.81763 17.3282H7.74219L7.74331 17.3181C7.75115 17.263 7.76107 17.2082 7.76691 17.1509C7.77507 17.0963 7.77891 17.0418 7.77891 16.9853V16.9767H7.84107L7.84243 16.9829C7.85587 17.0325 7.89219 17.0328 7.94203 17.0336H8.96339C9.01803 17.0328 9.05779 17.032 9.06115 16.9806L9.06195 16.9713L9.07075 16.9732L9.12611 16.982L9.12491 16.9905C9.11671 17.0432 9.10959 17.0961 9.10355 17.1491C9.09955 17.2014 9.09955 17.2546 9.09955 17.3077V17.3138L9.09419 17.316L9.02467 17.3414L9.02419 17.3298C9.01899 17.256 9.01123 17.149 8.88739 17.149H8.57443V18.1868C8.57619 18.3352 8.63491 18.3454 8.72827 18.3473H8.77427V18.4234H8.76595L8.76587 18.4235ZM9.17907 18.3558H9.20667C9.27707 18.3558 9.35171 18.3463 9.35171 18.2439V17.2137C9.35171 17.1111 9.27715 17.1014 9.20667 17.1014H9.17907V17.0424C9.29843 17.0424 9.50267 17.0502 9.66707 17.0502C9.83211 17.0502 10.0356 17.0424 10.1688 17.0424C10.1658 17.1427 10.1672 17.2431 10.1732 17.3432L10.114 17.359C10.1047 17.2313 10.0812 17.1291 9.87515 17.1291H9.60283V17.6442H9.83595C9.95355 17.6442 9.97915 17.5774 9.99075 17.471H10.0495C10.0416 17.6223 10.0416 17.774 10.0495 17.9254L9.99075 17.9371C9.97923 17.8192 9.97323 17.7426 9.83779 17.7426H9.60291V18.2006C9.60291 18.3286 9.71611 18.3286 9.84179 18.3286C10.0771 18.3286 10.1808 18.3126 10.2397 18.0888L10.2947 18.1022C10.2685 18.2057 10.2464 18.3101 10.2282 18.4152C10.1026 18.4152 9.87699 18.4074 9.70075 18.4074C9.52395 18.4074 9.29091 18.4152 9.17915 18.4152L9.17907 18.3558Z" fill="#211E1F"/>
<path d="M10.2279 18.4235C10.1019 18.4235 9.87657 18.4155 9.70049 18.4155C9.52385 18.4155 9.29089 18.4235 9.17889 18.4235H9.17065V18.3475H9.20641C9.27753 18.3464 9.34193 18.3401 9.34289 18.244V17.2137C9.34193 17.1177 9.27753 17.1113 9.20641 17.1098H9.17065V17.034H9.17889C9.29857 17.034 9.50249 17.0415 9.66689 17.0415C9.83177 17.0415 10.0352 17.034 10.1687 17.034H10.1775L10.1771 17.0428C10.1757 17.0766 10.1751 17.1105 10.1752 17.1443C10.1752 17.2123 10.1771 17.2866 10.1811 17.3427L10.1814 17.3498L10.1748 17.3517L10.1059 17.3697L10.1055 17.3596C10.0939 17.232 10.077 17.1394 9.87513 17.1375H9.61089L9.61065 17.6353H9.83577C9.94857 17.6342 9.96889 17.5762 9.98217 17.4703L9.98297 17.4626H10.0581L10.0579 17.4714C10.054 17.5479 10.0519 17.6246 10.0517 17.7013C10.0517 17.7757 10.0541 17.8503 10.0579 17.9252L10.0581 17.9322L10.051 17.9338L9.98297 17.9474L9.98217 17.9382C9.96873 17.8182 9.96777 17.7524 9.83753 17.751L9.61089 17.7508V18.2006C9.61105 18.3201 9.71377 18.3194 9.84161 18.3201C10.0776 18.3187 10.1723 18.3073 10.2315 18.0863L10.2334 18.0784L10.2416 18.08L10.3044 18.0962L10.3025 18.1043C10.2772 18.2085 10.2537 18.3124 10.2361 18.4166L10.2345 18.4235H10.2279ZM10.2207 18.4064C10.2384 18.3065 10.2596 18.2072 10.2842 18.1087L10.2454 18.0989C10.1867 18.319 10.073 18.3386 9.84161 18.3371C9.71817 18.3371 9.59441 18.3371 9.59385 18.2006V17.734H9.83753C9.97441 17.7325 9.98841 17.8154 9.99809 17.9274L10.0405 17.9186C10.033 17.7724 10.033 17.6259 10.0405 17.4797L9.99809 17.4796C9.98721 17.582 9.95529 17.654 9.83569 17.6526H9.59385V17.1203H9.87505C10.0791 17.1189 10.1128 17.2245 10.1215 17.3482L10.1639 17.3367C10.1601 17.2727 10.1582 17.2085 10.1581 17.1443C10.1581 17.1106 10.1589 17.0789 10.16 17.051C10.0268 17.0516 9.82825 17.0586 9.66689 17.0586C9.50577 17.0586 9.30745 17.0516 9.18737 17.051V17.0927H9.20641C9.27625 17.0927 9.35977 17.105 9.36001 17.2137V18.244C9.35977 18.3523 9.27625 18.3643 9.20641 18.3649H9.18737V18.4063C9.30177 18.4062 9.52817 18.3989 9.70049 18.3989C9.87337 18.3989 10.0942 18.4062 10.2207 18.4063V18.4064ZM10.5591 17.2508C10.5591 17.1074 10.4808 17.1014 10.4198 17.1014H10.3846V17.0422C10.4474 17.0422 10.5687 17.0502 10.6884 17.0502C10.806 17.0502 10.9003 17.0422 11.004 17.0422C11.2508 17.0422 11.4707 17.1093 11.4707 17.3888C11.4707 17.5654 11.3531 17.6736 11.1983 17.7348L11.5335 18.238C11.5883 18.3212 11.6274 18.3444 11.7236 18.3559V18.4152C11.6588 18.4152 11.5961 18.4074 11.5315 18.4074C11.4707 18.4074 11.4078 18.4152 11.3472 18.4152C11.1963 18.2166 11.0667 18.0041 10.9392 17.7778H10.8103V18.1988C10.8103 18.3504 10.8805 18.3559 10.9707 18.3559H11.006V18.4152C10.894 18.4152 10.7807 18.4074 10.6688 18.4074C10.5746 18.4074 10.4824 18.4152 10.3846 18.4152V18.3559H10.4198C10.4926 18.3559 10.5591 18.3229 10.5591 18.2499V17.2507L10.5591 17.2508ZM10.8103 17.707H10.9059C11.1021 17.707 11.2078 17.6323 11.2078 17.4002C11.2078 17.2254 11.0961 17.1132 10.9214 17.1132C10.8626 17.1132 10.8375 17.1194 10.8102 17.1211V17.707H10.8103Z" fill="#211E1F"/>
<path d="M11.7237 18.4235C11.658 18.4235 11.5956 18.4156 11.5311 18.4156C11.4713 18.4156 11.4087 18.4236 11.3404 18.4202C11.19 18.2224 11.0612 18.0112 10.9344 17.7865H10.8185V18.1986C10.8206 18.3466 10.8799 18.3453 10.9705 18.3474H11.0145V18.4236H11.0057C10.8937 18.4236 10.78 18.4156 10.6686 18.4156C10.5749 18.4156 10.483 18.4236 10.3846 18.4236H10.376V18.3474H10.4197C10.4905 18.347 10.5501 18.3162 10.5503 18.25V17.2508C10.5488 17.1112 10.4807 17.112 10.4197 17.11H10.376V17.0338H10.3845C10.4481 17.0338 10.569 17.0415 10.6885 17.0415C10.8055 17.0415 10.8997 17.0338 11.0041 17.0338C11.2512 17.0343 11.4788 17.1027 11.4794 17.3882C11.4794 17.5659 11.3624 17.6768 11.211 17.7386L11.5405 18.2334C11.5953 18.315 11.6294 18.3352 11.7249 18.3474L11.7321 18.3486V18.4236L11.7237 18.4235ZM10.8101 17.7694H10.9441L10.9464 17.7737C11.0741 17.9996 11.2029 18.2118 11.3473 18.4068C11.4071 18.4068 11.4701 18.3987 11.5311 18.3987C11.5937 18.3987 11.6541 18.4055 11.7152 18.4065V18.3634C11.6232 18.3519 11.5801 18.3244 11.5265 18.2427L11.1853 17.7307L11.1949 17.7267C11.3484 17.6662 11.4619 17.5611 11.4621 17.3882C11.4619 17.1154 11.2506 17.0522 11.0041 17.051C10.9007 17.051 10.8065 17.0588 10.6885 17.0588C10.5733 17.0588 10.457 17.0516 10.3929 17.051V17.0927H10.4197C10.4807 17.0929 10.5674 17.103 10.5674 17.2508V18.25C10.5674 18.3289 10.4936 18.3649 10.4197 18.365H10.3929V18.4065C10.4873 18.4062 10.5765 18.3987 10.6686 18.3987C10.7782 18.3987 10.8889 18.4062 10.9973 18.4065V18.365H10.9705C10.8811 18.3649 10.8014 18.3538 10.8014 18.1986V17.7694H10.81H10.8101ZM10.8101 17.7154H10.8014V17.1132L10.8089 17.1126C10.8357 17.1105 10.8622 17.1049 10.9215 17.1049C11.1001 17.1049 11.2162 17.2214 11.2165 17.4006C11.216 17.6354 11.1037 17.7152 10.906 17.7153H10.81L10.8101 17.7154ZM10.906 17.6984C11.1001 17.6968 11.1977 17.6292 11.1998 17.4006C11.1987 17.2288 11.0922 17.1222 10.9214 17.1215C10.8685 17.1215 10.8436 17.1264 10.8185 17.1286V17.6984H10.906ZM13.0548 18.0276L13.0584 18.0238V17.2864C13.0584 17.125 12.9468 17.1015 12.888 17.1015H12.845V17.0424C12.937 17.0424 13.0271 17.0502 13.1194 17.0502C13.1999 17.0502 13.28 17.0424 13.3609 17.0424V17.1015H13.3313C13.2489 17.1015 13.1568 17.1171 13.1568 17.3511V18.2462C13.1568 18.3149 13.1587 18.3836 13.1684 18.4446H13.094L12.0844 17.3158V18.126C12.0844 18.2972 12.1177 18.3559 12.2685 18.3559H12.3019V18.4152C12.2177 18.4152 12.1333 18.4074 12.0491 18.4074C11.9606 18.4074 11.8705 18.4152 11.7824 18.4152V18.3559H11.8096C11.945 18.3559 11.9862 18.2638 11.9862 18.1066V17.2782C11.9862 17.1682 11.8961 17.1014 11.808 17.1014H11.7824V17.0425C11.8566 17.0425 11.9334 17.0502 12.0078 17.0502C12.0662 17.0502 12.1233 17.0425 12.1822 17.0425L13.0548 18.0276Z" fill="#211E1F"/>
<path d="M13.1684 18.453L13.0876 18.4503L12.0926 17.338V18.126C12.0949 18.297 12.1207 18.3456 12.2686 18.3475H12.3102V18.4235H12.3015C12.2167 18.4235 12.1327 18.4155 12.0486 18.4155C11.961 18.4155 11.8705 18.4235 11.7822 18.4235H11.7734V18.3475H11.8094C11.9389 18.347 11.976 18.2634 11.9773 18.106V17.2782C11.9771 17.1734 11.8916 17.11 11.8078 17.1098H11.7734V17.0338H11.7822C11.857 17.0338 11.9338 17.0415 12.0077 17.0415C12.0653 17.0415 12.1222 17.0338 12.188 17.0365L13.0498 18.0098V17.2862C13.0493 17.13 12.9449 17.1106 12.8879 17.1098H12.8361V17.0338H12.8447C12.9374 17.0338 13.0277 17.0415 13.1193 17.0415C13.1993 17.0415 13.2796 17.0338 13.3604 17.0338H13.3689V17.1098H13.3313C13.2504 17.112 13.167 17.1193 13.165 17.3512V18.246C13.165 18.3148 13.1667 18.383 13.1766 18.4434L13.1778 18.453H13.1684ZM13.0939 18.4358H13.1583C13.1498 18.3768 13.1478 18.3114 13.1478 18.246V17.3512C13.148 17.1152 13.2472 17.0934 13.3313 17.0926H13.3518V17.051C13.2748 17.0516 13.1972 17.0587 13.1193 17.0587C13.0293 17.0587 12.9418 17.0516 12.853 17.051V17.0926H12.8879C12.9482 17.0934 13.0671 17.1198 13.0671 17.2862L13.0644 18.0297L13.0606 18.0337L13.0546 18.0401L12.182 17.0511C12.1238 17.0511 12.067 17.0587 12.0077 17.0587C11.9351 17.0587 11.8618 17.0516 11.7905 17.0511V17.0927H11.8078C11.8998 17.0934 11.9944 17.163 11.9944 17.2782V18.106C11.9944 18.2639 11.9501 18.3644 11.8095 18.365L11.7905 18.3648V18.4064C11.8751 18.406 11.9626 18.3989 12.0486 18.3989C12.1309 18.3989 12.2123 18.406 12.2934 18.4064V18.365H12.2686C12.1142 18.3648 12.0756 18.297 12.0753 18.1259V17.2939L13.0939 18.4358ZM13.0498 18.0238V18.0231L13.0482 18.0216L13.0498 18.0238ZM13.6761 18.1339C13.6562 18.2006 13.6326 18.2522 13.6326 18.2872C13.6326 18.3464 13.7151 18.356 13.7796 18.356H13.8014V18.4152C13.7223 18.4105 13.6431 18.4079 13.5638 18.4074C13.4933 18.4074 13.423 18.411 13.3524 18.4153V18.3559H13.3642C13.4406 18.3559 13.5055 18.3108 13.5344 18.2281L13.8485 17.3257C13.8738 17.2529 13.9094 17.1545 13.9213 17.0817C13.9837 17.0602 14.0622 17.0209 14.0994 16.9972C14.1054 16.9952 14.1089 16.9931 14.115 16.9931C14.1209 16.9931 14.1246 16.9931 14.129 16.9993C14.1347 17.0148 14.1404 17.0326 14.1467 17.0483L14.5074 18.077C14.5309 18.1457 14.5542 18.2184 14.5796 18.2775C14.6032 18.3326 14.6446 18.3559 14.7094 18.3559H14.721V18.4153C14.6309 18.4105 14.5407 18.4079 14.4506 18.4075C14.3544 18.4075 14.2562 18.411 14.1562 18.4153V18.3559H14.1779C14.2228 18.3559 14.2995 18.3483 14.2995 18.2991C14.2995 18.2735 14.2818 18.2206 14.2599 18.1574L14.1837 17.9293H13.7386L13.6761 18.134V18.1339ZM13.9622 17.2627H13.9582L13.7758 17.8193H14.1422L13.9622 17.2627Z" fill="#211E1F"/>
<path d="M14.7203 18.4235C14.6321 18.4195 14.5438 18.4155 14.4505 18.4155C14.3543 18.4155 14.2567 18.4195 14.1563 18.4235L14.1475 18.4241V18.3472H14.1777C14.2231 18.3472 14.2905 18.3368 14.2905 18.299C14.2911 18.2766 14.2734 18.2227 14.2518 18.1601L14.1772 17.9377H13.7447L13.6838 18.1364C13.6639 18.2034 13.6404 18.2554 13.6405 18.2874C13.6412 18.3354 13.7145 18.3472 13.7795 18.3472H13.8097V18.424L13.8009 18.4235C13.7224 18.4195 13.6423 18.4155 13.5641 18.4155C13.4938 18.4155 13.4232 18.4195 13.3529 18.4235L13.3438 18.4241V18.3472H13.364C13.437 18.3469 13.4979 18.3054 13.5262 18.2253L13.8402 17.3228C13.8658 17.2498 13.9012 17.1518 13.9181 17.0734C13.9801 17.0513 14.0398 17.023 14.0961 16.989C14.1016 16.9872 14.107 16.9845 14.115 16.9845C14.1193 16.9843 14.1236 16.9853 14.1274 16.9873C14.1312 16.9893 14.1344 16.9923 14.1366 16.996C14.1422 17.0122 14.1484 17.0296 14.1543 17.0456L14.5154 18.0741C14.5386 18.1431 14.562 18.2158 14.5875 18.2738C14.6102 18.3263 14.6463 18.347 14.7093 18.3472H14.7293V18.4241L14.7203 18.4235ZM14.1646 18.4059C14.2618 18.4026 14.3568 18.3987 14.4505 18.3987C14.5415 18.3987 14.6268 18.4026 14.7121 18.4059V18.3649H14.7093C14.6422 18.3653 14.5957 18.3389 14.5717 18.2809C14.5461 18.2212 14.5222 18.1482 14.4993 18.0794L14.1382 17.051C14.1323 17.0354 14.1265 17.0174 14.1214 17.0036C14.1198 17.0017 14.1201 17.0017 14.1185 17.0017H14.115C14.1109 17.0017 14.1086 17.0029 14.1036 17.0042C14.0658 17.029 13.9871 17.0675 13.929 17.083C13.9169 17.1574 13.8817 17.2555 13.8561 17.3284L13.5424 18.231C13.5125 18.3163 13.4437 18.365 13.364 18.3649H13.3609V18.4059C13.4281 18.4026 13.4961 18.3987 13.5641 18.3987C13.6398 18.3987 13.7173 18.4026 13.7921 18.4059V18.3649H13.7795C13.7157 18.3641 13.6265 18.3569 13.6241 18.2874C13.6242 18.2482 13.6483 18.1978 13.6674 18.1314L13.676 18.1341L13.6674 18.1312L13.732 17.921H14.1891L14.2678 18.1546C14.2898 18.2178 14.3077 18.2702 14.3077 18.299C14.3049 18.3594 14.2221 18.3637 14.1777 18.3649H14.1646V18.4059ZM13.7638 17.8277L13.9516 17.2541H13.9622H13.9681L14.1541 17.8277H13.7638ZM13.7873 17.8106H14.1305L13.9599 17.2836L13.7873 17.8106ZM14.8071 17.1406C14.6599 17.1406 14.6542 17.1761 14.6246 17.3195H14.5657C14.5734 17.2646 14.5833 17.2096 14.5895 17.1523C14.5974 17.0973 14.6009 17.0424 14.6009 16.9854H14.6482C14.6639 17.0445 14.7131 17.0424 14.7657 17.0424H15.7778C15.8303 17.0424 15.8793 17.0406 15.8833 16.9814L15.9302 16.9893C15.9228 17.0424 15.915 17.0955 15.909 17.1486C15.9048 17.2017 15.9048 17.2549 15.9048 17.3078L15.8461 17.3297C15.8424 17.257 15.8326 17.1406 15.7012 17.1406H15.3796V18.187C15.3796 18.3386 15.4484 18.3559 15.5422 18.3559H15.5794V18.4152C15.503 18.4152 15.366 18.4074 15.26 18.4074C15.1425 18.4074 15.005 18.4152 14.9286 18.4152V18.3559H14.9657C15.0737 18.3559 15.1288 18.3462 15.1288 18.191V17.1406H14.8071Z" fill="#211E1F"/>
<path d="M15.5796 18.4235C15.5026 18.4235 15.3653 18.4155 15.2601 18.4155C15.1429 18.4155 15.0056 18.4235 14.9287 18.4235H14.9201V18.3474H14.9658C15.0739 18.3448 15.1173 18.3434 15.1201 18.191L15.1197 17.1492H14.8072V17.1318H15.137V18.191C15.137 18.3488 15.0735 18.3643 14.9658 18.3646H14.937V18.4067C15.0146 18.4059 15.1463 18.3988 15.2601 18.3988C15.3625 18.3988 15.4935 18.4059 15.571 18.4067V18.3647H15.5421C15.4478 18.3643 15.3714 18.3415 15.3712 18.187V17.1318H15.7013C15.8329 17.1324 15.8501 17.2446 15.8538 17.3175L15.8966 17.3018C15.8966 17.2506 15.8968 17.1992 15.9006 17.1477C15.906 17.097 15.9133 17.0466 15.9206 16.9965L15.8909 16.9914C15.882 17.0486 15.8266 17.0518 15.7778 17.051H14.7559C14.7097 17.0515 14.6597 17.0488 14.6418 16.9936H14.6098C14.6095 17.0471 14.6055 17.1004 14.5978 17.1534C14.5926 17.2075 14.5829 17.2596 14.5757 17.3113H14.6177C14.6437 17.1742 14.6606 17.1298 14.8072 17.1318V17.1492C14.6618 17.1516 14.6651 17.1763 14.633 17.3217L14.6315 17.3283H14.5559L14.5571 17.3185C14.5653 17.263 14.5751 17.2082 14.5808 17.1513C14.5888 17.0964 14.5926 17.0418 14.5926 16.9854V16.9768H14.6546L14.6562 16.983C14.67 17.0326 14.7057 17.0328 14.7559 17.0337L14.7658 17.0339H15.7778C15.8319 17.0329 15.8714 17.032 15.8749 16.9808L15.8754 16.9714L15.8846 16.9733L15.9402 16.9821L15.9388 16.9906C15.9306 17.0433 15.9234 17.0962 15.9173 17.1492C15.9133 17.2015 15.9133 17.2548 15.9133 17.3078V17.3139L15.9078 17.3161L15.8382 17.3414L15.8379 17.3299C15.8329 17.2561 15.8251 17.1491 15.7013 17.1491H15.3881V18.187C15.3902 18.3353 15.4488 18.3455 15.5421 18.3474H15.588V18.4234H15.5796V18.4235ZM16.0028 18.3558H16.0302C16.101 18.3558 16.1751 18.3463 16.1751 18.2438V17.2137C16.1751 17.1111 16.101 17.1014 16.0303 17.1014H16.0028V17.0424C16.0793 17.0424 16.1968 17.0502 16.2926 17.0502C16.391 17.0502 16.5086 17.0424 16.6009 17.0424V17.1014H16.5733C16.5028 17.1014 16.4281 17.1111 16.4281 17.2137V18.2439C16.4281 18.3463 16.5028 18.3559 16.5733 18.3559H16.6009V18.4151C16.5066 18.4151 16.3889 18.4074 16.2911 18.4074C16.1949 18.4074 16.0793 18.4152 16.0028 18.4152V18.3558Z" fill="#211E1F"/>
<path d="M16.6008 18.4235C16.5061 18.4235 16.3887 18.4155 16.2909 18.4155C16.1951 18.4155 16.0793 18.4235 16.0027 18.4235H15.9941V18.3474H16.0301C16.101 18.3463 16.166 18.3402 16.1663 18.2439V17.2137C16.166 17.1177 16.101 17.1111 16.0301 17.1098H15.9941V17.034H16.0027C16.0793 17.034 16.197 17.0414 16.2925 17.0414C16.3903 17.0414 16.5079 17.034 16.6008 17.034H16.6091V17.1098H16.5733C16.5017 17.1111 16.4373 17.1177 16.4364 17.2137V18.2439C16.4373 18.3402 16.5017 18.3463 16.5733 18.3474H16.6091V18.4234H16.6008V18.4235ZM16.592 18.4063V18.3647H16.5733C16.503 18.3647 16.4198 18.3523 16.4198 18.2439V17.2137C16.4198 17.105 16.503 17.0927 16.5733 17.0927H16.592V17.051C16.5014 17.0515 16.3881 17.0586 16.2925 17.0586C16.1997 17.0586 16.0873 17.0515 16.0113 17.051V17.0927H16.0302C16.0999 17.0927 16.1834 17.105 16.1837 17.2137V18.2439C16.1834 18.3523 16.0999 18.3647 16.0302 18.3647H16.0113V18.4063C16.0869 18.4055 16.1978 18.3988 16.2909 18.3988C16.386 18.3988 16.4995 18.4059 16.5919 18.4063H16.592ZM17.3826 17.013C17.8005 17.013 18.1337 17.2729 18.1337 17.6916C18.1337 18.144 17.8102 18.4446 17.3929 18.4446C16.9768 18.4446 16.6594 18.1614 16.6594 17.7386C16.6594 17.3297 16.9749 17.013 17.3826 17.013ZM17.4122 18.3581C17.7927 18.3581 17.8589 18.0215 17.8589 17.7348C17.8589 17.4474 17.7045 17.0994 17.3789 17.0994C17.0357 17.0994 16.9338 17.4062 16.9338 17.6695C16.9338 18.0215 17.0945 18.3581 17.4122 18.3581Z" fill="#211E1F"/>
<path d="M16.6509 17.7386C16.6517 17.325 16.9709 17.005 17.3827 17.0044V17.0213C16.9798 17.0213 16.6678 17.3339 16.6675 17.7386C16.6684 18.1567 16.9813 18.4357 17.393 18.4358C17.8062 18.4357 18.1251 18.1392 18.1258 17.6912C18.1254 17.2778 17.7972 17.0218 17.3827 17.0213V17.0044C17.8039 17.0046 18.1415 17.2671 18.1424 17.6912C18.142 18.1483 17.8143 18.4522 17.393 18.453C16.9737 18.4522 16.6517 18.1661 16.6509 17.7386V17.7386ZM16.9255 17.6695C16.9261 17.405 17.0291 17.0906 17.3791 17.0906C17.7119 17.0914 17.8674 17.4459 17.8679 17.7348C17.8673 18.0216 17.8 18.3662 17.4126 18.3662V18.3496C17.7854 18.3491 17.8499 18.0216 17.8509 17.7348C17.8509 17.4498 17.6978 17.1084 17.3791 17.108C17.0427 17.1084 16.9431 17.4076 16.9426 17.6695C16.9428 18.0198 17.102 18.3488 17.4126 18.3496V18.3662C17.087 18.3658 16.9261 18.0236 16.9255 17.6694V17.6695ZM19.4551 18.0276L19.4591 18.0238V17.2864C19.4591 17.125 19.3471 17.1015 19.2882 17.1015H19.2458V17.0424C19.3377 17.0424 19.4278 17.0502 19.5197 17.0502C19.6003 17.0502 19.6806 17.0424 19.7612 17.0424V17.1015H19.7316C19.6494 17.1015 19.5571 17.1171 19.5571 17.3511V18.2462C19.5571 18.3149 19.559 18.3836 19.569 18.4446H19.4946L18.4846 17.3158V18.126C18.4846 18.2972 18.5178 18.3559 18.6687 18.3559H18.7023V18.4152C18.6178 18.4152 18.5338 18.4074 18.4494 18.4074C18.3612 18.4074 18.2708 18.4152 18.1826 18.4152V18.3559H18.2102C18.3457 18.3559 18.3863 18.2638 18.3863 18.1066V17.2782C18.3863 17.1682 18.2966 17.1014 18.2081 17.1014H18.1825V17.0425C18.257 17.0425 18.3336 17.0502 18.4079 17.0502C18.4668 17.0502 18.5235 17.0425 18.5826 17.0425L19.4551 18.0276Z" fill="#211E1F"/>
<path d="M19.5689 18.453L19.4878 18.4502L18.493 17.3379V18.1261C18.4951 18.297 18.521 18.3454 18.6683 18.3472H18.7107V18.4236H18.7022C18.6172 18.4236 18.533 18.4156 18.4493 18.4156C18.3613 18.4156 18.2713 18.4236 18.1822 18.4236H18.1741V18.3472H18.21C18.3393 18.3468 18.3764 18.2634 18.378 18.1066V17.2782C18.3778 17.1735 18.2922 17.11 18.2079 17.1098H18.1741V17.034H18.1822C18.2574 17.034 18.3338 17.0415 18.4078 17.0415C18.466 17.0415 18.5226 17.034 18.5889 17.0369L19.4503 18.0098V17.2866C19.4498 17.1301 19.3454 17.1112 19.2879 17.1098H19.2365V17.0341H19.2453C19.3376 17.0341 19.428 17.0416 19.5193 17.0416C19.5998 17.0416 19.6797 17.0341 19.761 17.0341H19.7694V17.1098H19.7314C19.6507 17.1122 19.5673 17.1195 19.5656 17.3512V18.2461C19.5656 18.3148 19.5671 18.3834 19.5766 18.4435L19.5782 18.453H19.5689ZM19.4945 18.4358H19.5586C19.55 18.3768 19.5486 18.3114 19.5486 18.246V17.3512C19.5486 17.1147 19.6474 17.0934 19.7314 17.0926H19.7526V17.051C19.6753 17.0516 19.5978 17.0587 19.5194 17.0587C19.4302 17.0587 19.3424 17.0516 19.2537 17.051V17.0926H19.2881C19.3489 17.0934 19.4671 17.1202 19.4671 17.2866L19.465 18.0297L19.4613 18.0337L19.455 18.0401L18.5824 17.0511C18.5246 17.0511 18.4674 17.0587 18.4078 17.0587C18.3357 17.0587 18.2621 17.0516 18.1907 17.0511V17.0927H18.208C18.3 17.0934 18.3948 17.163 18.3948 17.2782V18.1066C18.3948 18.2638 18.351 18.3644 18.21 18.365L18.1907 18.3648V18.4064C18.2758 18.406 18.3631 18.3989 18.4493 18.3989C18.531 18.3989 18.6122 18.406 18.6937 18.4064V18.365H18.6683C18.5145 18.3648 18.476 18.297 18.476 18.1261V17.2936L19.4944 18.4358H19.4945ZM19.4504 18.0238V18.0231L19.4488 18.0216L19.4504 18.0238ZM20.0761 18.1339C20.0569 18.2006 20.0331 18.2522 20.0331 18.2872C20.0331 18.3464 20.1157 18.356 20.18 18.356H20.2018V18.4152C20.1228 18.4105 20.0436 18.4079 19.9645 18.4074C19.8936 18.4074 19.8234 18.411 19.753 18.4153V18.3559H19.7642C19.841 18.3559 19.906 18.3108 19.935 18.2281L20.249 17.3257C20.2743 17.2529 20.3098 17.1545 20.3213 17.0817C20.3835 17.0594 20.4433 17.0311 20.5 16.9972C20.5056 16.9952 20.5096 16.9931 20.5155 16.9931C20.5214 16.9931 20.525 16.9931 20.529 16.9993C20.535 17.0148 20.5411 17.0326 20.547 17.0483L20.9075 18.077C20.931 18.1457 20.9544 18.2184 20.9802 18.2775C21.0038 18.3326 21.045 18.3559 21.1095 18.3559H21.1215V18.4153C21.0313 18.4105 20.941 18.4079 20.8506 18.4075C20.7526 18.408 20.6545 18.4106 20.5566 18.4153V18.3559H20.5783C20.6231 18.3559 20.7 18.3483 20.7 18.2991C20.7 18.2735 20.6822 18.2206 20.6603 18.1574L20.5842 17.9293H20.139L20.0761 18.134V18.1339ZM20.3627 17.2627H20.3587L20.1762 17.8193H20.5431L20.3627 17.2627Z" fill="#211E1F"/>
<path d="M21.1205 18.4235C21.0323 18.42 20.9442 18.4156 20.8505 18.4156C20.755 18.4156 20.6569 18.42 20.5568 18.4236L20.5481 18.4241V18.3474H20.5778C20.6234 18.3474 20.6911 18.3368 20.6912 18.299C20.6916 18.2766 20.674 18.223 20.6521 18.1601L20.5776 17.9377H20.1448L20.0841 18.1364C20.0646 18.2038 20.0412 18.2554 20.0416 18.2872C20.0416 18.3354 20.115 18.3474 20.1799 18.3474H20.2098V18.4241L20.201 18.4235C20.1226 18.42 20.0424 18.4156 19.9644 18.4156C19.8941 18.4156 19.8236 18.42 19.7529 18.4236L19.7444 18.4241V18.3474H19.7641C19.8373 18.3472 19.8985 18.305 19.927 18.2253L20.2408 17.3228C20.2658 17.2498 20.3011 17.1518 20.3185 17.0737C20.3801 17.0522 20.4589 17.013 20.4969 16.989C20.5021 16.9872 20.5073 16.985 20.5153 16.985C20.5197 16.9845 20.524 16.9854 20.5279 16.9874C20.5317 16.9894 20.5349 16.9925 20.5369 16.9963C20.5427 17.0118 20.5485 17.0296 20.5549 17.0456L20.9155 18.0741C20.9389 18.143 20.9625 18.2157 20.9878 18.2742C21.0109 18.3263 21.0466 18.3469 21.1091 18.3474H21.1295V18.4241L21.1205 18.4235ZM20.5649 18.4062C20.6618 18.4026 20.7573 18.3987 20.8505 18.3987C20.9417 18.3987 21.0273 18.4026 21.1127 18.4059L21.1124 18.3649H21.1092C21.0428 18.365 20.9965 18.3389 20.9721 18.2809C20.9463 18.2212 20.9229 18.1482 20.8995 18.0796L20.5387 17.051C20.5328 17.0354 20.5269 17.0174 20.5221 17.0042C20.5205 17.0017 20.5206 17.0017 20.5191 17.0017H20.5154C20.5113 17.0017 20.5091 17.003 20.5044 17.0044C20.4662 17.0286 20.3876 17.0678 20.3296 17.083C20.3174 17.1574 20.2818 17.2554 20.2565 17.3284L19.9426 18.231C19.9129 18.3163 19.8443 18.365 19.7641 18.3649H19.7613V18.4059C19.8287 18.4026 19.8961 18.3987 19.9644 18.3987C20.0404 18.3987 20.1177 18.4026 20.1932 18.4059V18.3649H20.1798C20.1161 18.3641 20.0266 18.3571 20.0243 18.2872C20.0247 18.2482 20.0491 18.1982 20.068 18.1314L20.076 18.1341L20.068 18.1312L20.1325 17.921H20.5898L20.6684 18.1546C20.69 18.2179 20.7078 18.2702 20.7078 18.299C20.7049 18.3594 20.6227 18.3637 20.5778 18.3649H20.5649L20.5649 18.4062ZM20.1644 17.8275L20.3524 17.2541H20.3626H20.3687L20.5541 17.8275H20.1644ZM20.1879 17.8106H20.5308L20.3603 17.2839L20.1879 17.8106ZM20.3545 17.2651L20.3584 17.2636L20.3544 17.2651H20.3545ZM21.6154 18.2224C21.6154 18.3011 21.6698 18.3246 21.7326 18.3326C21.813 18.3386 21.9013 18.3386 21.9918 18.3286C22.0739 18.3187 22.1446 18.2715 22.1797 18.2224C22.2109 18.179 22.2286 18.124 22.2405 18.0808H22.2973C22.2758 18.1928 22.2483 18.3032 22.2247 18.4152C22.0525 18.4152 21.8797 18.4074 21.7073 18.4074C21.5345 18.4074 21.3623 18.4152 21.1897 18.4152V18.3559H21.2167C21.2877 18.3559 21.3644 18.3463 21.3644 18.2243V17.2137C21.3644 17.1111 21.2876 17.1015 21.2167 17.1015H21.1897V17.0425C21.2933 17.0425 21.3955 17.0502 21.4992 17.0502C21.5995 17.0502 21.6974 17.0425 21.7975 17.0425V17.1015H21.7481C21.6739 17.1015 21.6154 17.1037 21.6154 17.2076V18.2224Z" fill="#211E1F"/>
<path d="M22.2248 18.4235C22.052 18.4235 21.8795 18.4157 21.7075 18.4157C21.5348 18.4157 21.3623 18.4235 21.1895 18.4235H21.1812V18.3475H21.2168C21.288 18.3458 21.3551 18.341 21.3559 18.2243V17.2134C21.3551 17.1178 21.2883 17.1112 21.2168 17.1098H21.1812V17.034H21.1895C21.2937 17.034 21.3959 17.0415 21.4994 17.0415C21.599 17.0415 21.6968 17.034 21.7976 17.034H21.8056V17.1098H21.7484C21.6724 17.112 21.6251 17.1085 21.6236 17.2076V18.2225C21.6241 18.2957 21.672 18.3154 21.7332 18.3241C21.7678 18.3265 21.8041 18.328 21.842 18.328C21.89 18.328 21.9398 18.3257 21.9904 18.3202C22.0704 18.3108 22.1392 18.2646 22.1728 18.2177C22.2031 18.1757 22.2204 18.1217 22.2321 18.0787L22.234 18.0722H22.3077L22.306 18.0826C22.2838 18.195 22.2569 18.305 22.2332 18.4169L22.2316 18.4236L22.2248 18.4235ZM22.2177 18.4064C22.2404 18.2998 22.2661 18.1954 22.2872 18.0891H22.2469C22.2347 18.1319 22.2173 18.1846 22.1864 18.2276C22.1499 18.2786 22.0772 18.3266 21.9923 18.3371C21.9409 18.3424 21.89 18.3451 21.8419 18.3451C21.804 18.3451 21.7672 18.3434 21.7316 18.3409C21.6679 18.3338 21.606 18.3065 21.6063 18.2225V17.2075C21.6063 17.0983 21.6752 17.0927 21.7484 17.0927H21.7889V17.051C21.6923 17.0515 21.5971 17.0587 21.4994 17.0587C21.3979 17.0587 21.2986 17.0515 21.198 17.051V17.0927H21.2168C21.2868 17.0927 21.3724 17.105 21.3724 17.2132V18.2242C21.3724 18.3514 21.2872 18.3647 21.2168 18.3647H21.198V18.4063C21.3676 18.4062 21.5371 18.3988 21.7075 18.3988C21.8779 18.3988 22.048 18.4062 22.2177 18.4063V18.4064ZM22.2736 16.9866C22.3917 16.9866 22.48 17.0777 22.48 17.1943C22.48 17.3106 22.3917 17.4007 22.2736 17.4007C22.1554 17.4007 22.0671 17.3106 22.0671 17.1943C22.0671 17.0777 22.1554 16.9866 22.2736 16.9866ZM22.2736 17.3622C22.3659 17.3622 22.4369 17.2831 22.4369 17.1943C22.4369 17.105 22.367 17.0253 22.2736 17.0253C22.1808 17.0253 22.1097 17.105 22.1097 17.1943C22.1097 17.2831 22.1808 17.3622 22.2736 17.3622ZM22.1708 17.3034V17.2932C22.1962 17.2897 22.2008 17.2905 22.2008 17.2746V17.1214C22.2008 17.0998 22.1984 17.0925 22.1717 17.0936V17.0831H22.2773C22.3138 17.0831 22.3472 17.1004 22.3472 17.1381C22.3472 17.1689 22.3268 17.1917 22.2984 17.2005L22.3322 17.2479C22.348 17.2695 22.3659 17.2897 22.3777 17.2967V17.3034H22.3375C22.3182 17.3034 22.3013 17.2626 22.2632 17.208H22.2404V17.2768C22.2404 17.2904 22.2452 17.2896 22.2706 17.2932V17.3034H22.1708ZM22.2404 17.1943H22.2648C22.2914 17.1943 22.3039 17.1741 22.3039 17.1415C22.3039 17.1085 22.2846 17.0969 22.2634 17.0969H22.2404V17.1943Z" fill="#211E1F"/>
<path d="M15.021 13.493C18.0005 13.5074 20.72 11.0501 20.72 8.06072C20.72 4.79168 18.0005 2.532 15.021 2.53312H12.4568C9.44172 2.532 6.95996 4.79232 6.95996 8.06072C6.95996 11.0507 9.44172 13.5074 12.4568 13.493H15.021Z" fill="#0079BE"/>
<path d="M12.4691 2.98608C9.71391 2.98696 7.48135 5.23224 7.48071 8.00336C7.48135 10.7739 9.71391 13.019 12.4691 13.0198C15.225 13.019 17.458 10.7739 17.4583 8.00336C17.4579 5.23216 15.225 2.98696 12.4691 2.98608ZM9.30711 8.00336C9.30967 6.6492 10.1509 5.49456 11.337 5.03568V10.9703C10.1509 10.5117 9.30967 9.3576 9.30711 8.00336ZM13.6007 10.9716V5.03552C14.7874 5.49328 15.6298 6.64864 15.632 8.00344C15.6321 8.64528 15.4381 9.27216 15.0757 9.80185C14.7132 10.3315 14.1991 10.7393 13.6008 10.9717L13.6007 10.9716Z" fill="white"/>
<path d="M15.021 13.493C18.0005 13.5074 20.72 11.0501 20.72 8.06072C20.72 4.79168 18.0005 2.532 15.021 2.53312H12.4568C9.44172 2.532 6.95996 4.79232 6.95996 8.06072C6.95996 11.0507 9.44172 13.5074 12.4568 13.493H15.021Z" fill="#0079BE"/>
<path d="M12.4691 2.98608C9.71391 2.98696 7.48135 5.23224 7.48071 8.00336C7.48135 10.7739 9.71391 13.019 12.4691 13.0198C15.225 13.019 17.458 10.7739 17.4583 8.00336C17.4579 5.23216 15.225 2.98696 12.4691 2.98608ZM9.30711 8.00336C9.30967 6.6492 10.1509 5.49456 11.337 5.03568V10.9703C10.1509 10.5117 9.30967 9.3576 9.30711 8.00336ZM13.6007 10.9716V5.03552C14.7874 5.49328 15.6298 6.64864 15.632 8.00344C15.6321 8.64528 15.4381 9.27216 15.0757 9.80185C14.7132 10.3315 14.1991 10.7393 13.6008 10.9717L13.6007 10.9716Z" fill="white"/>
<path fill-rule="evenodd" clip-rule="evenodd" d="M2.4 0.453125H25.6C26.928 0.453125 28 1.52512 28 2.85312V18.0531C28 19.3811 26.928 20.4531 25.6 20.4531H2.4C1.072 20.4531 0 19.3811 0 18.0531V2.85312C0 1.52512 1.072 0.453125 2.4 0.453125ZM27.2 2.85312C27.2 1.97312 26.48 1.25312 25.6 1.25312H2.4C1.52 1.25312 0.8 1.97312 0.8 2.85312V18.0531C0.8 18.9331 1.52 19.6531 2.4 19.6531H25.6C26.48 19.6531 27.2 18.9331 27.2 18.0531V2.85312Z" fill="#E7E7E7"/>
</g>
<defs>
<clipPath id="clip0_0_649">
<rect width="28" height="20" fill="white" transform="translate(0 0.453125)"/>
</clipPath>
</defs>
</svg>
