<svg width="24" height="24" viewBox="0 0 24 24" fill="none" xmlns="http://www.w3.org/2000/svg">
<rect width="24" height="24" fill="white"/>
<g clip-path="url(#clip0_0_862)">
<path d="M24 0V24H0V0H24ZM14.8327 0.857143H14.7723C13.2277 0.857143 11.9911 1.31475 11.0625 2.22991C10.1432 3.13591 9.67896 4.40732 9.6698 6.04404L9.66964 6.09375V9.01339H6.25446V12.9777H9.66964V23.1429H13.7679V12.9777H17.1696L17.692 9.01339H13.7679V6.48214C13.7679 5.83929 13.9018 5.35714 14.1696 5.03571C14.4334 4.71921 14.9395 4.55855 15.688 4.55368L15.7232 4.55357H17.8259V1.01786C17.1249 0.914036 16.1472 0.860464 14.8926 0.857304L14.8326 0.857143H14.8327Z" fill="#222326"/>
</g>
<defs>
<clipPath id="clip0_0_862">
<rect width="24" height="24" fill="white"/>
</clipPath>
</defs>
</svg>
