<svg width="13" height="13" viewBox="0 0 13 13" fill="none" xmlns="http://www.w3.org/2000/svg">
<path d="M6.70312 0.624023C8.77567 0.624023 10.6062 1.68041 11.6846 3.28299L11.6856 3.28438C11.706 3.30998 11.724 3.33677 11.7394 3.36446C12.3484 4.30352 12.7031 5.42315 12.7031 6.62402C12.7031 9.92265 10.0275 12.6079 6.73275 12.624C6.73045 12.6241 6.72808 12.6241 6.72571 12.6241L6.70312 12.624C3.39461 12.624 0.703125 9.93253 0.703125 6.62402C0.703125 3.31571 3.39461 0.624023 6.70312 0.624023ZM6.70312 1.78528C6.50724 1.78528 6.31401 1.79698 6.12415 1.81972C6.10068 1.91375 6.05209 2.0023 5.97963 2.07641L4.45469 3.63714C4.34336 3.75103 4.1929 3.812 4.03928 3.812C3.97064 3.812 3.9016 3.7998 3.83492 3.77483C3.61935 3.69359 3.47203 3.49277 3.45965 3.26265L3.44757 3.04725C2.47541 3.93289 1.86437 5.20844 1.86437 6.62402C1.86437 6.90513 1.88848 7.1807 1.93471 7.44881L2.82222 8.18538C2.83126 8.19266 2.84011 8.20053 2.84876 8.20859L3.62294 8.93437C3.69316 9.00007 3.74587 9.08228 3.77636 9.17374L4.07945 10.0793L4.53656 10.3016H5.56446C5.71827 10.3016 5.86597 10.3625 5.97495 10.4715L6.95933 11.4561C9.50879 11.3224 11.5418 9.20617 11.5418 6.62402C11.5418 5.8726 11.3697 5.16063 11.0627 4.52549L10.1603 5.24616L10.3277 5.6122C10.3627 5.68812 10.3804 5.77053 10.3804 5.85393V6.60784C10.3804 6.78014 10.3039 6.94358 10.1717 7.05393C10.0393 7.16407 9.86467 7.2103 9.69532 7.17902L8.75869 7.00751L9.22956 8.28855C9.2866 8.44354 9.2748 8.61544 9.1973 8.76139L8.37474 10.3097C8.28523 10.4783 8.11941 10.5907 7.93282 10.6136L7.86178 10.6179C7.647 10.6179 7.44972 10.4991 7.34902 10.3093L6.95543 9.56742C6.94875 9.55444 6.94226 9.54126 6.93636 9.52788L6.6134 8.78833L6.22533 8.25412L4.85755 8.44118C4.75822 8.45475 4.65692 8.44255 4.56369 8.40518L3.39124 7.93765C3.16839 7.84855 3.02322 7.632 3.02556 7.39204L3.04191 5.84783C3.04408 5.65035 3.14616 5.46763 3.31334 5.3624L5.27867 4.12641C5.51371 3.97869 5.82094 4.01783 6.01114 4.22062L6.66218 4.91395L7.48492 5.23062L7.75616 5.13365L6.60494 3.48933C6.48162 3.3131 6.46568 3.08317 6.56363 2.89179L7.12044 1.80311C6.98288 1.7913 6.8437 1.78528 6.70312 1.78528Z" fill="#8F8F8F"/>
</svg>
