<svg width="30" height="21" viewBox="0 0 30 21" fill="none" xmlns="http://www.w3.org/2000/svg">
<g clip-path="url(#clip0_0_615)">
<path d="M26.1931 20.4531H2.90873C1.5759 20.4531 0.5 19.3811 0.5 18.0531V2.85313C0.5 1.52513 1.5759 0.453125 2.90873 0.453125H26.1931C27.5259 0.453125 28.6018 1.52513 28.6018 2.85313V18.0531C28.6018 19.3811 27.5259 20.4531 26.1931 20.4531Z" fill="#F8F8F8"/>
<path d="M26.1931 1.25313C27.0763 1.25313 27.7989 1.97313 27.7989 2.85313V18.0531C27.7989 18.9331 27.0763 19.6531 26.1931 19.6531H2.90873C2.02553 19.6531 1.30291 18.9331 1.30291 18.0531V2.85313C1.30291 1.97313 2.02553 1.25313 2.90873 1.25313H26.1931ZM26.1931 0.453125H2.90873C1.5759 0.453125 0.5 1.52513 0.5 2.85313V18.0531C0.5 19.3811 1.5759 20.4531 2.90873 20.4531H26.1931C27.5259 20.4531 28.6018 19.3811 28.6018 18.0531V2.85313C28.6018 1.52513 27.5259 0.453125 26.1931 0.453125Z" fill="#E7E7E7"/>
<path d="M22.84 10.4543C22.84 13.2835 20.5469 15.5682 17.7172 15.5682C14.8875 15.5682 12.5847 13.2835 12.5847 10.4543C12.5847 7.62512 14.8778 5.33067 17.7075 5.33067C20.5469 5.33067 22.84 7.62512 22.84 10.4543Z" fill="#F79F1A"/>
<path d="M16.517 10.4543C16.517 13.2835 14.2239 15.5682 11.3942 15.5682C8.56452 15.5682 6.27148 13.2738 6.27148 10.4543C6.27148 7.63484 8.56452 5.33067 11.3942 5.33067C14.2239 5.33067 16.517 7.62512 16.517 10.4543Z" fill="#EA001B"/>
<path d="M14.546 6.42929C13.3458 7.36262 12.5847 8.82096 12.5847 10.4543C12.5847 12.0876 13.3556 13.546 14.546 14.4793C15.7462 13.546 16.5073 12.0876 16.5073 10.4543C16.5073 8.82096 15.7462 7.36262 14.546 6.42929Z" fill="#FF5F01"/>
</g>
<defs>
<clipPath id="clip0_0_615">
<rect width="29" height="20" fill="white" transform="translate(0.5 0.453125)"/>
</clipPath>
</defs>
</svg>
