<svg width="24" height="24" viewBox="0 0 24 24" fill="white" xmlns="http://www.w3.org/2000/svg">
<g clip-path="url(#clip0_0_859)">
<path d="M24 0V24H0V0H24ZM16.058 3.42857C14.8616 3.42857 13.8415 3.85045 12.9978 4.6942C12.154 5.53795 11.7321 6.55805 11.7321 7.75446C11.7321 8.07589 11.7679 8.40627 11.8393 8.74554C10.0714 8.65623 8.41296 8.21207 6.86384 7.41295C5.31471 6.61382 4.00002 5.54909 2.91964 4.21875C2.5268 4.88839 2.33036 5.61605 2.33036 6.40179C2.33036 7.14284 2.50446 7.83038 2.85268 8.46429C3.20089 9.0982 3.66964 9.61162 4.25893 10.0045C3.57766 9.97821 2.93909 9.8025 2.34321 9.47727L2.30357 9.45536V9.50893C2.30357 10.5536 2.6317 11.471 3.28795 12.2612C3.9442 13.0513 4.7723 13.5491 5.77232 13.7545C5.40075 13.8522 5.01814 13.9017 4.63393 13.9018C4.38391 13.9018 4.11161 13.8794 3.81696 13.8348C4.09377 14.7009 4.6027 15.4129 5.34375 15.971C6.0848 16.529 6.92411 16.817 7.86161 16.8348C6.2902 18.067 4.5 18.683 2.49107 18.683C2.10713 18.683 1.75891 18.6652 1.44643 18.6295C3.45536 19.9241 5.66963 20.5714 8.08929 20.5714C9.62502 20.5714 11.0669 20.3281 12.4152 19.8415C13.7634 19.3549 14.9152 18.7031 15.8705 17.8862C16.8259 17.0692 17.6495 16.1294 18.3415 15.067C19.0335 14.0045 19.5491 12.8951 19.8884 11.7388C20.2277 10.5826 20.3973 9.42412 20.3973 8.26339C20.3973 8.01338 20.3929 7.82588 20.3839 7.70089C21.2321 7.08482 21.9553 6.33927 22.5536 5.46429C21.7232 5.82145 20.8929 6.04463 20.0625 6.13393C21 5.57143 21.6339 4.7768 21.9643 3.75C21.1071 4.25893 20.192 4.60714 19.2188 4.79464C18.3616 3.88393 17.308 3.42857 16.058 3.42857Z" fill="#222326"/>
</g>
<defs>
<clipPath id="clip0_0_859">
<rect width="24" height="24" fill="white"/>
</clipPath>
</defs>
</svg>
