<svg width="29" height="21" viewBox="0 0 29 21" fill="none" xmlns="http://www.w3.org/2000/svg">
<path d="M26.1931 20.4531H2.90873C1.5759 20.4531 0.5 19.3811 0.5 18.0531V2.85313C0.5 1.52513 1.5759 0.453125 2.90873 0.453125H26.1931C27.5259 0.453125 28.6018 1.52513 28.6018 2.85313V18.0531C28.6018 19.3811 27.5259 20.4531 26.1931 20.4531Z" fill="#F8F8F8"/>
<path d="M26.1931 1.25313C27.0763 1.25313 27.7989 1.97313 27.7989 2.85313V18.0531C27.7989 18.9331 27.0763 19.6531 26.1931 19.6531H2.90873C2.02553 19.6531 1.30291 18.9331 1.30291 18.0531V2.85313C1.30291 1.97313 2.02553 1.25313 2.90873 1.25313H26.1931ZM26.1931 0.453125H2.90873C1.5759 0.453125 0.5 1.52513 0.5 2.85313V18.0531C0.5 19.3811 1.5759 20.4531 2.90873 20.4531H26.1931C27.5259 20.4531 28.6018 19.3811 28.6018 18.0531V2.85313C28.6018 1.52513 27.5259 0.453125 26.1931 0.453125Z" fill="#E7E7E7"/>
<path d="M12.2948 7.02113L10.8175 13.8531H12.5999L14.0773 7.02113H12.2948ZM23.7764 7.02113H22.2589C21.9217 7.02113 21.6246 7.22113 21.5042 7.51713L18.8225 13.8531H20.6932L21.0626 12.8291H23.3509L23.5677 13.8531H25.2217L23.7764 7.02113ZM21.5845 11.4291L22.5159 8.86913L23.0538 11.4291H21.5845ZM9.65325 7.02113L7.79853 11.6691L7.0438 7.71713C6.94745 7.26913 6.61022 7.01313 6.2168 7.01313H3.19786L3.15771 7.21313C3.78398 7.34913 4.48251 7.56513 4.91609 7.78913C5.17302 7.94113 5.25331 8.06113 5.3336 8.39713L6.75475 13.8611H8.63355L11.5321 7.02913H9.65325V7.02113ZM16.4218 8.92513C16.4218 8.68513 16.6626 8.41313 17.1765 8.35713C17.4334 8.33313 18.14 8.30113 18.9349 8.66913L19.248 7.21313C18.8144 7.06113 18.2604 6.91713 17.586 6.91713C15.8276 6.91713 14.5831 7.84513 14.5671 9.18113C14.551 10.1651 15.4583 10.7171 16.1247 11.0451C16.8152 11.3811 17.0561 11.5971 17.048 11.8931C17.048 12.3491 16.494 12.5571 15.9802 12.5651C15.0889 12.5811 14.559 12.3251 14.1495 12.1331L13.8284 13.6291C14.2459 13.8211 15.0167 13.9811 15.8196 13.9971C17.6984 13.9971 18.9188 13.0771 18.9349 11.6611C18.9188 9.82913 16.4057 9.71713 16.4218 8.92513Z" fill="#0F2496"/>
</svg>
